<svg width="485" height="153" viewBox="0 0 485 153" fill="none" xmlns="http://www.w3.org/2000/svg">
<path fill-rule="evenodd" clip-rule="evenodd" d="M431.338 95.1485V51.4041H438.059V95.1485H431.338ZM434.755 44.1134C433.445 44.1134 432.315 43.6672 431.366 42.7749C430.436 41.8825 429.971 40.8098 429.971 39.5567C429.971 38.3036 430.436 37.2309 431.366 36.3385C432.315 35.4462 433.445 35 434.755 35C436.065 35 437.185 35.4462 438.116 36.3385C439.065 37.2309 439.54 38.3036 439.54 39.5567C439.54 40.8098 439.065 41.8825 438.116 42.7749C437.185 43.6672 436.065 44.1134 434.755 44.1134ZM157.043 101.326V43H150.321V101.326H157.043ZM206.148 75.0108V101.326H199.427V43H206.148V64.4165H206.718C207.743 62.1571 209.281 60.3629 211.331 59.0339C213.401 57.6859 216.154 57.0119 219.59 57.0119C222.571 57.0119 225.182 57.6099 227.422 58.8061C229.663 59.9832 231.4 61.7964 232.634 64.2456C233.887 66.6759 234.514 69.7706 234.514 73.5299V101.326H227.793V73.9856C227.793 70.5111 226.891 67.8245 225.087 65.9259C223.302 64.0083 220.825 63.0495 217.654 63.0495C215.451 63.0495 213.477 63.5147 211.73 64.445C210.002 65.3753 208.635 66.7328 207.629 68.5175C206.642 70.3022 206.148 72.4667 206.148 75.0108ZM188.377 57.5815V63.2774H179.035V88.7949C179.035 90.6936 179.311 92.1175 179.861 93.0668C180.431 93.9972 181.152 94.6237 182.026 94.9465C182.918 95.2503 183.858 95.4022 184.845 95.4022C185.586 95.4022 186.193 95.3642 186.668 95.2882L187.807 95.0604L189.174 101.098C188.718 101.269 188.082 101.44 187.266 101.611C186.449 101.801 185.415 101.895 184.162 101.895C182.263 101.895 180.402 101.487 178.58 100.671C176.776 99.8544 175.276 98.6108 174.08 96.94C172.903 95.2693 172.314 93.1618 172.314 90.6176V63.2774H165.707V57.5815H172.314V47.1011H179.035V57.5815H188.377ZM118.004 102.351C115.232 102.351 112.716 101.829 110.457 100.785C108.198 99.7216 106.403 98.1933 105.074 96.1997C103.745 94.1871 103.081 91.7569 103.081 88.909C103.081 86.4028 103.575 84.3713 104.562 82.8144C105.549 81.2385 106.869 80.0044 108.52 79.112C110.172 78.2197 111.995 77.5552 113.988 77.1185C116.001 76.6628 118.023 76.3021 120.055 76.0363C122.713 75.6945 124.868 75.4382 126.519 75.2673C128.19 75.0775 129.405 74.7642 130.165 74.3275C130.943 73.8908 131.332 73.1314 131.332 72.0492V71.8213C131.332 69.0114 130.563 66.8279 129.026 65.2711C127.507 63.7142 125.2 62.9358 122.105 62.9358C118.896 62.9358 116.381 63.6382 114.558 65.0432C112.735 66.4482 111.454 67.9481 110.713 69.543L104.334 67.2646C105.473 64.6065 106.992 62.537 108.891 61.0561C110.808 59.5562 112.897 58.512 115.156 57.9234C117.434 57.3158 119.675 57.012 121.877 57.012C123.282 57.012 124.896 57.1829 126.719 57.5247C128.56 57.8474 130.336 58.5214 132.044 59.5467C133.772 60.572 135.206 62.1193 136.345 64.1888C137.484 66.2584 138.054 69.0303 138.054 72.5048V101.326H131.332V95.4023H130.991C130.535 96.3516 129.776 97.3673 128.712 98.4496C127.649 99.5318 126.235 100.453 124.469 101.212C122.703 101.972 120.548 102.351 118.004 102.351ZM119.029 96.3136C121.687 96.3136 123.928 95.7915 125.75 94.7472C127.592 93.703 128.978 92.355 129.908 90.7032C130.858 89.0514 131.332 87.3141 131.332 85.4914V79.3399C131.048 79.6816 130.421 79.9949 129.453 80.2797C128.503 80.5455 127.402 80.7828 126.149 80.9917C124.915 81.1816 123.709 81.3524 122.532 81.5043C121.374 81.6372 120.434 81.7511 119.713 81.8461C117.966 82.0739 116.333 82.4441 114.814 82.9568C113.314 83.4504 112.099 84.2004 111.169 85.2066C110.258 86.1939 109.802 87.542 109.802 89.2507C109.802 91.586 110.666 93.3517 112.394 94.5479C114.14 95.725 116.352 96.3136 119.029 96.3136ZM65.8866 99.4463C68.9434 101.307 72.5793 102.237 76.7943 102.237C79.7561 102.237 82.4237 101.782 84.797 100.87C87.1702 99.94 89.1638 98.6489 90.7776 96.9971C92.3915 95.3263 93.5401 93.3897 94.2236 91.1873L87.7303 89.3646C87.1607 90.8835 86.3538 92.1556 85.3096 93.1809C84.2653 94.1871 83.0217 94.9466 81.5788 95.4592C80.1548 95.9529 78.56 96.1997 76.7943 96.1997C74.0792 96.1997 71.6964 95.6111 69.6459 94.434C67.5954 93.2378 65.9911 91.5006 64.8329 89.2222C63.8 87.1392 63.2354 84.6425 63.139 81.7322H94.9071V78.8842C94.9071 74.8022 94.366 71.3657 93.2838 68.5747C92.2016 65.7837 90.7492 63.5433 88.9265 61.8535C87.1038 60.1448 85.0817 58.9107 82.8604 58.1512C80.639 57.3918 78.3891 57.012 76.1107 57.012C72.1616 57.012 68.7061 57.9803 65.7442 59.9169C62.8014 61.8345 60.504 64.5116 58.8522 67.9481C57.2194 71.3657 56.403 75.3148 56.403 79.7956C56.403 84.2763 57.2194 88.2065 58.8522 91.586C60.504 94.9466 62.8488 97.5667 65.8866 99.4463ZM63.1562 75.9224C63.2842 73.8932 63.7956 71.9756 64.6905 70.1695C65.7347 68.062 67.2252 66.3533 69.1618 65.0432C71.1173 63.7142 73.4337 63.0497 76.1107 63.0497C78.541 63.0497 80.6485 63.6098 82.4332 64.73C84.2369 65.8501 85.6229 67.3785 86.5912 69.3151C87.5784 71.2517 88.0721 73.4541 88.0721 75.9224H63.1562ZM0 101.326V43H7.06289V68.9732H38.1624V43H45.2253V101.326H38.1624V75.2387H7.06289V101.326H0ZM457.09 95.1485V68.8336C457.09 66.2894 457.575 64.125 458.543 62.3403C459.511 60.5555 460.831 59.198 462.502 58.2677C464.191 57.3374 466.109 56.8722 468.254 56.8722C471.368 56.8722 473.817 57.8405 475.602 59.7771C477.387 61.6947 478.279 64.3718 478.279 67.8083V95.1485H485V67.3526C485 63.6313 484.383 60.5555 483.149 58.1253C481.915 55.6761 480.187 53.8534 477.966 52.6573C475.744 51.4421 473.153 50.8346 470.191 50.8346C466.887 50.8346 464.191 51.5181 462.103 52.8851C460.014 54.2331 458.457 56.0178 457.432 58.2392H456.863V51.4042H450.369V95.1485H457.09ZM391.473 94.6074C393.733 95.6517 396.249 96.1738 399.021 96.1738C401.565 96.1738 403.72 95.7941 405.485 95.0346C407.251 94.2752 408.666 93.3543 409.729 92.2721C410.792 91.1899 411.551 90.1741 412.007 89.2248H412.349V95.1485H419.07V66.3274C419.07 62.8529 418.5 60.0809 417.361 58.0114C416.222 55.9419 414.789 54.3945 413.061 53.3692C411.352 52.344 409.577 51.67 407.735 51.3472C405.913 51.0055 404.299 50.8346 402.894 50.8346C400.691 50.8346 398.451 51.1384 396.173 51.7459C393.913 52.3345 391.825 53.3787 389.907 54.8787C388.008 56.3596 386.49 58.4291 385.35 61.0872L391.73 63.3655C392.47 61.7707 393.752 60.2708 395.575 58.8658C397.397 57.4608 399.913 56.7583 403.122 56.7583C406.216 56.7583 408.523 57.5367 410.042 59.0936C411.58 60.6505 412.349 62.8339 412.349 65.6439V65.8717C412.349 66.9539 411.96 67.7134 411.181 68.1501C410.422 68.5867 409.207 68.9 407.536 69.0899C405.884 69.2607 403.729 69.5171 401.071 69.8588C399.04 70.1246 397.017 70.4854 395.005 70.941C393.011 71.3777 391.189 72.0422 389.537 72.9346C387.885 73.8269 386.566 75.0611 385.578 76.6369C384.591 78.1938 384.097 80.2253 384.097 82.7315C384.097 85.5794 384.762 88.0097 386.091 90.0222C387.42 92.0158 389.214 93.5442 391.473 94.6074ZM406.767 88.5698C404.944 89.614 402.704 90.1362 400.046 90.1362C397.369 90.1362 395.157 89.5476 393.41 88.3704C391.682 87.1743 390.818 85.4086 390.818 83.0733C390.818 81.3645 391.274 80.0165 392.185 79.0292C393.116 78.0229 394.331 77.273 395.831 76.7793C397.35 76.2667 398.983 75.8965 400.729 75.6686C401.451 75.5737 402.391 75.4598 403.549 75.3269C404.726 75.175 405.932 75.0041 407.166 74.8142C408.419 74.6054 409.52 74.3681 410.469 74.1022C411.438 73.8175 412.064 73.5042 412.349 73.1624V79.314C412.349 81.1367 411.874 82.8739 410.925 84.5257C409.995 86.1775 408.609 87.5255 406.767 88.5698ZM373.838 36.8225V95.1483H367.117V36.8225H373.838ZM318.246 51.4042V111.553H324.967V88.4274H325.537C326.031 89.2248 326.733 90.2311 327.645 91.4462C328.556 92.6423 329.856 93.7151 331.546 94.6644C333.236 95.5947 335.486 96.0599 338.296 96.0599C341.941 96.0599 345.159 95.139 347.95 93.2974C350.741 91.4367 352.925 88.8166 354.501 85.437C356.076 82.0385 356.864 78.0229 356.864 73.3903C356.864 68.7956 356.076 64.8085 354.501 61.4289C352.925 58.0494 350.732 55.4387 347.922 53.5971C345.112 51.7554 341.865 50.8346 338.182 50.8346C335.334 50.8346 333.075 51.3092 331.404 52.2586C329.752 53.1889 328.48 54.2521 327.588 55.4482C326.714 56.6254 326.031 57.5937 325.537 58.3531H324.74V51.4042H318.246ZM326.306 82.0195C325.338 79.4943 324.854 76.58 324.854 73.2763C324.854 70.0107 325.328 67.1533 326.277 64.704C327.227 62.2358 328.632 60.3182 330.492 58.9512C332.353 57.5652 334.65 56.8722 337.384 56.8722C340.232 56.8722 342.596 57.6032 344.476 59.0651C346.374 60.5081 347.789 62.4732 348.719 64.9604C349.669 67.4286 350.143 70.2006 350.143 73.2763C350.143 76.3901 349.659 79.219 348.691 81.7632C347.741 84.2884 346.317 86.3009 344.419 87.8008C342.539 89.2818 340.194 90.0222 337.384 90.0222C334.688 90.0222 332.41 89.3197 330.549 87.9148C328.689 86.4908 327.274 84.5257 326.306 82.0195Z" fill="#02023E"/>
<path fill-rule="evenodd" clip-rule="evenodd" d="M267.382 105.486C267.05 106.441 266.723 107.382 266.402 108.308L266.397 108.323L266.397 108.323L266.397 108.323C261.691 121.886 258.001 132.521 250.697 145.717C250.101 146.8 245.865 147.67 237.051 147.748C235.565 147.761 234.014 147.76 232.435 147.758C228.15 147.752 223.656 147.747 219.681 148.044L218.337 148.208L219.981 145.102C222.321 140.869 225.626 135.374 229.302 129.26L229.302 129.259L229.302 129.259L229.302 129.258C232.536 123.881 236.056 118.025 239.462 112.129C244.246 103.845 248.757 95.5692 251.717 88.6925C254.484 82.2752 256.524 75.8785 254.496 72.2514C251.863 67.5391 248.983 62.5722 246.016 57.4553L246.016 57.4551C239.871 46.8579 233.352 35.617 227.88 24.6596C226.214 21.3257 224.059 16.2323 222.206 11.8528L222.206 11.8527L222.206 11.8526L222.205 11.8516C221.513 10.2163 220.863 8.68065 220.297 7.37331L219.765 6.1629L224.068 4.9607C238.75 1.88748 249.873 7.00814 257.824 20.5648C263.519 30.2768 271.47 46.6433 271.47 46.6433C271.47 46.6433 267.763 53.748 269.803 53.748C271.843 53.748 273.353 50.9192 273.353 50.9192C273.353 50.9192 282.481 30.2802 288.176 20.5682C296.127 7.01159 307.25 1.89094 321.932 4.96415L326.235 6.16636L325.703 7.37677C325.138 8.68224 324.489 10.2154 323.798 11.8481L323.795 11.8556L323.794 11.8562C321.941 16.2357 319.786 21.3292 318.12 24.6631C312.648 35.6204 306.129 46.8612 299.985 57.4584C297.017 62.5754 294.137 67.5424 291.504 72.2548C289.476 75.882 291.516 82.2787 294.283 88.6959C297.243 95.5727 301.754 103.849 306.538 112.133C309.944 118.029 313.465 123.885 316.698 129.263C320.374 135.377 323.678 140.872 326.019 145.105L327.663 148.211L326.319 148.047C322.344 147.75 317.85 147.756 313.565 147.761C311.986 147.763 310.435 147.765 308.949 147.752C300.135 147.674 295.899 146.804 295.303 145.721C287.998 132.525 284.309 121.889 279.603 108.326L279.6 108.318C279.277 107.388 278.95 106.445 278.617 105.486L278.608 105.46C277.504 102.288 276.332 98.9469 275.038 95.3716C274.724 94.5119 273.901 93.9718 273.021 94.0407L272.998 94.0387C272.11 93.9608 271.278 94.5024 270.962 95.3681C269.678 98.9152 268.514 102.232 267.418 105.382C267.41 105.407 267.402 105.428 267.396 105.445C267.39 105.464 267.385 105.478 267.382 105.486ZM273.181 43.4602L271.47 46.6433C272.06 45.6305 272.628 44.5661 273.181 43.4602ZM274.926 107.089L274.93 107.099C275.227 107.953 275.52 108.797 275.809 109.631L275.809 109.631C280.529 123.231 284.353 134.249 291.82 147.752C294.031 151.742 302.504 151.806 308.295 151.85L308.306 151.85C308.513 151.852 308.717 151.853 308.917 151.855C310.552 151.87 312.215 151.868 313.875 151.866C320.047 151.86 326.179 151.854 330.639 152.692C332.174 152.983 333.426 151.428 332.862 149.939C331.256 145.658 325.828 136.621 319.605 126.262L319.605 126.262C316.469 121.043 313.133 115.488 309.981 110.036C305.21 101.781 300.802 93.673 297.947 87.0383C294.847 79.8496 294.183 75.7301 294.983 74.2982C297.556 69.6922 300.405 64.7771 303.36 59.681L303.361 59.6788L303.362 59.6781L303.362 59.6779C309.535 49.0311 316.166 37.594 321.684 26.5341C323.697 22.4942 325.892 17.256 327.683 12.983L327.683 12.9826L327.683 12.9824L327.683 12.9823C329.055 9.70863 330.189 7.00157 330.823 5.834C331.43 4.70976 330.899 3.2983 329.715 2.88799C310.197 -3.82877 294.915 1.11545 284.749 18.4469C281.903 23.3093 279.659 28.6392 277.509 33.7451C276.127 37.0264 274.784 40.2151 273.346 43.1278C271.16 39.3723 269.546 35.7004 267.866 31.8787L267.866 31.8787L267.866 31.8786L267.866 31.8785C266.022 27.6837 264.098 23.3083 261.251 18.4435C251.085 1.112 235.803 -3.83222 216.285 2.88453C215.101 3.29484 214.57 4.7063 215.177 5.83055C215.811 6.99814 216.945 9.70525 218.317 12.979L218.317 12.979C220.108 17.2521 222.303 22.4906 224.316 26.5306C229.834 37.5906 236.465 49.0278 242.638 59.6747L242.639 59.6755L242.639 59.6759C245.594 64.7726 248.444 69.6883 251.017 74.2947C251.817 75.7267 251.153 79.8462 248.053 87.0348C245.198 93.6695 240.79 101.777 236.019 110.033C232.867 115.484 229.53 121.039 226.395 126.258L226.395 126.259C220.172 136.618 214.744 145.654 213.138 149.935C212.574 151.425 213.826 152.98 215.361 152.688C219.821 151.851 225.953 151.857 232.125 151.863H232.125C233.785 151.864 235.448 151.866 237.083 151.851L237.318 151.849L237.705 151.846C243.496 151.803 251.969 151.739 254.18 147.748C261.647 134.246 265.471 123.228 270.191 109.628C270.818 107.821 271.461 105.968 272.13 104.058L272.999 101.602L273.87 104.062C274.229 105.087 274.581 106.096 274.926 107.089ZM272.04 67.0354L272.11 65.5128H275.21L279.518 77.6777C279.57 77.5781 279.623 77.4789 279.676 77.3793C280.09 76.6006 280.513 75.8053 280.799 74.6854L285.39 62.0047L289.551 59.3939L283.559 76.6492C282.345 80.0849 280.753 81.4219 280.753 81.4219L279.908 82.4597H278.217L274.615 73.8962C274.119 76.7093 273.514 79.1461 272.866 80.8999C271.753 83.9104 270.611 85.5048 270.611 85.5048L270.106 86.1947H267.392L264.695 75.8537H260.469L261.314 73.8962H264.114H267.653L269.442 80.3375C269.497 80.2027 269.524 80.1624 269.549 80.1245C269.578 80.0803 269.605 80.0392 269.673 79.8559C270.68 77.1327 271.776 72.9145 272.04 67.0354Z" fill="#02023E"/>
</svg>
