<svg width="500" height="201" viewBox="0 0 500 201" fill="none" xmlns="http://www.w3.org/2000/svg">
<path fill-rule="evenodd" clip-rule="evenodd" d="M280.023 136.609L278.88 133.38L277.739 136.604C276.877 139.061 276.05 141.446 275.242 143.773L275.219 143.838L275.205 143.881L275.196 143.906L275.193 143.915C268.997 161.769 263.977 176.233 254.175 193.959C251.272 199.197 240.149 199.281 232.547 199.339L232.014 199.343L231.73 199.345C229.584 199.364 227.401 199.362 225.221 199.36H225.221H225.221H225.221H225.221H225.221H225.22H225.22H225.22H225.22H225.22H225.22H225.22H225.22C217.117 199.352 209.069 199.344 203.215 200.444C201.199 200.826 199.555 198.785 200.296 196.83C202.404 191.21 209.53 179.347 217.7 165.747C221.815 158.896 226.196 151.604 230.333 144.447C236.597 133.609 242.383 122.966 246.131 114.256C250.2 104.819 251.072 99.4113 250.022 97.5315C246.644 91.4837 242.902 85.0301 239.023 78.3386C230.919 64.3618 222.213 49.3476 214.97 34.8285C212.328 29.5248 209.446 22.6479 207.095 17.0383L207.095 17.0382C205.294 12.7406 203.805 9.18689 202.973 7.65414C202.175 6.17827 202.874 4.32535 204.428 3.78671C230.049 -5.03081 250.111 1.45979 263.458 24.2119C267.195 30.5982 269.72 36.342 272.14 41.8488L272.14 41.8491L272.141 41.8503C274.346 46.8669 276.465 51.6869 279.335 56.6166C281.223 52.793 282.986 48.6069 284.8 44.2994C287.622 37.5966 290.568 30.5996 294.304 24.2164C307.65 1.46433 327.712 -5.02627 353.334 3.79125C354.888 4.32989 355.586 6.1828 354.788 7.65867C353.957 9.19142 352.467 12.7451 350.666 17.0426L350.666 17.043C348.316 22.6525 345.434 29.5294 342.791 34.833C335.548 49.3521 326.842 64.3663 318.739 78.3432L318.738 78.3434C314.859 85.0348 311.117 91.4883 307.739 97.536C306.689 99.4159 307.561 104.824 311.63 114.261C315.379 122.971 321.165 133.614 327.428 144.451C331.564 151.606 335.943 158.896 340.058 165.746L340.06 165.749L340.061 165.752L340.062 165.752L340.063 165.754L340.064 165.756L340.065 165.757C348.233 179.354 355.357 191.215 357.466 196.834C358.206 198.789 356.563 200.831 354.546 200.448C348.692 199.349 340.643 199.357 332.54 199.365C330.36 199.367 328.177 199.369 326.032 199.35L325.659 199.347L325.466 199.345L325.214 199.343C317.612 199.286 306.489 199.202 303.586 193.963C293.784 176.238 288.764 161.773 282.569 143.92L282.568 143.92C282.188 142.822 281.802 141.712 281.411 140.588C280.957 139.282 280.495 137.956 280.023 136.609ZM279.118 57.0533L276.873 61.2317C277.647 59.9023 278.392 58.505 279.118 57.0533ZM258.958 26.9967C266.434 39.7463 276.873 61.2317 276.873 61.2317C276.873 61.2317 272.005 70.5585 274.684 70.5585C277.362 70.5585 279.344 66.8449 279.344 66.8449C279.344 66.8449 291.327 39.7508 298.803 27.0012C309.241 9.20457 323.842 2.48236 343.116 6.51676L348.766 8.09497L348.068 9.68396C347.324 11.4002 346.471 13.4163 345.562 15.5632L345.562 15.5646L345.561 15.5651L345.56 15.569L345.56 15.5696C343.127 21.3177 340.299 28.0015 338.113 32.3768C330.929 46.7604 322.373 61.5163 314.306 75.4271L314.305 75.4286L314.305 75.4293L314.304 75.431C310.409 82.1479 306.628 88.6678 303.172 94.8536C300.51 99.6151 303.187 108.013 306.821 116.437C310.706 125.464 316.628 136.329 322.908 147.204C327.379 154.944 332.001 162.632 336.246 169.691L336.246 169.692C341.072 177.718 345.41 184.932 348.482 190.489L350.64 194.566L348.876 194.351C343.658 193.961 337.758 193.969 332.133 193.976C330.06 193.978 328.024 193.981 326.074 193.963C314.502 193.861 308.942 192.719 308.159 191.297C298.57 173.974 293.726 160.012 287.549 142.207C287.124 140.983 286.693 139.741 286.254 138.478L286.242 138.444C284.794 134.28 283.255 129.894 281.556 125.2C281.144 124.072 280.064 123.363 278.908 123.453L278.878 123.451C277.712 123.348 276.62 124.059 276.205 125.196C274.519 129.853 272.991 134.208 271.553 138.343L271.506 138.478C271.068 139.736 270.638 140.974 270.215 142.194L270.212 142.203L270.212 142.203L270.212 142.203L270.212 142.204L270.212 142.205C264.035 160.008 259.191 173.97 249.602 191.292C248.82 192.714 243.259 193.856 231.688 193.959C229.737 193.976 227.702 193.973 225.629 193.971C220.003 193.964 214.103 193.957 208.885 194.346L207.121 194.562L209.279 190.484C212.352 184.928 216.689 177.713 221.515 169.687L221.516 169.686L221.518 169.682L221.52 169.678C225.763 162.621 230.384 154.937 234.854 147.199C241.133 136.324 247.055 125.46 250.941 116.432C254.574 108.008 257.252 99.6106 254.59 94.8491C251.133 88.6631 247.352 82.143 243.457 75.426L243.456 75.4249C235.389 61.5133 226.832 46.7566 219.648 32.3723C217.462 27.9956 214.632 21.309 212.199 15.5597C211.291 13.4125 210.438 11.396 209.694 9.67942L208.995 8.09044L214.645 6.51223C233.919 2.47782 248.52 9.20004 258.958 26.9967ZM277.712 86.0029L277.621 88.0017C277.274 95.7195 275.835 101.257 274.513 104.832C274.424 105.073 274.389 105.127 274.35 105.185C274.317 105.234 274.283 105.287 274.21 105.464L271.861 97.0083H267.215H263.54L262.43 99.5781H267.978L271.519 113.153H275.081L275.744 112.248C275.744 112.248 277.243 110.155 278.704 106.203C279.556 103.9 280.349 100.701 281.001 97.0083L285.73 108.25H287.949L289.058 106.888C289.058 106.888 291.148 105.133 292.742 100.622L300.609 77.9703L295.146 81.3975L289.119 98.0444C288.743 99.5146 288.188 100.559 287.645 101.581L287.644 101.583C287.575 101.713 287.506 101.842 287.437 101.973L281.782 86.0029H277.712ZM206.148 120.297V93.9819C206.148 91.4377 206.642 89.2733 207.629 87.4886C208.635 85.7039 210.002 84.3463 211.73 83.416C213.477 82.4857 215.451 82.0205 217.654 82.0205C220.825 82.0205 223.302 82.9793 225.087 84.8969C226.891 86.7956 227.793 89.4821 227.793 92.9566V120.297H234.514V92.5009C234.514 88.7417 233.887 85.6469 232.634 83.2167C231.4 80.7674 229.663 78.9542 227.422 77.7771C225.182 76.581 222.571 75.9829 219.59 75.9829C216.154 75.9829 213.401 76.6569 211.331 78.0049C209.281 79.334 207.743 81.1282 206.718 83.3875H206.148V61.971H199.427V120.297H206.148ZM188.377 76.5525V82.2484H179.035V107.766C179.035 109.665 179.311 111.089 179.861 112.038C180.431 112.968 181.152 113.595 182.026 113.918C182.918 114.221 183.858 114.373 184.845 114.373C185.586 114.373 186.193 114.335 186.668 114.259L187.807 114.031L189.174 120.069C188.718 120.24 188.082 120.411 187.266 120.582C186.449 120.772 185.415 120.866 184.162 120.866C182.263 120.866 180.402 120.458 178.58 119.642C176.776 118.825 175.276 117.582 174.08 115.911C172.903 114.24 172.314 112.133 172.314 109.589V82.2484H165.707V76.5525H172.314V66.0721H179.035V76.5525H188.377ZM157.043 120.297V61.971H150.321V120.297H157.043ZM118.004 121.322C115.232 121.322 112.716 120.8 110.457 119.756C108.198 118.693 106.403 117.164 105.074 115.171C103.745 113.158 103.081 110.728 103.081 107.88C103.081 105.374 103.575 103.342 104.562 101.785C105.549 100.21 106.869 98.9754 108.52 98.0831C110.172 97.1907 111.995 96.5262 113.988 96.0895C116.001 95.6339 118.023 95.2731 120.055 95.0073C122.713 94.6656 124.868 94.4092 126.519 94.2384C128.19 94.0485 129.405 93.7352 130.165 93.2985C130.943 92.8619 131.332 92.1024 131.332 91.0202V90.7924C131.332 87.9824 130.563 85.799 129.026 84.2421C127.507 82.6852 125.2 81.9068 122.105 81.9068C118.896 81.9068 116.381 82.6093 114.558 84.0143C112.735 85.4192 111.454 86.9192 110.713 88.514L104.334 86.2356C105.473 83.5776 106.992 81.5081 108.891 80.0271C110.808 78.5272 112.897 77.483 115.156 76.8944C117.434 76.2868 119.675 75.9831 121.877 75.9831C123.282 75.9831 124.896 76.1539 126.719 76.4957C128.56 76.8185 130.336 77.4925 132.044 78.5177C133.772 79.543 135.206 81.0904 136.345 83.1599C137.484 85.2294 138.054 88.0014 138.054 91.4759V120.297H131.332V114.373H130.991C130.535 115.323 129.776 116.338 128.712 117.421C127.649 118.503 126.235 119.424 124.469 120.183C122.703 120.943 120.548 121.322 118.004 121.322ZM119.029 115.285C121.687 115.285 123.928 114.763 125.75 113.718C127.592 112.674 128.978 111.326 129.908 109.674C130.858 108.022 131.332 106.285 131.332 104.462V98.3109C131.048 98.6527 130.421 98.9659 129.453 99.2507C128.503 99.5165 127.402 99.7539 126.149 99.9627C124.915 100.153 123.709 100.323 122.532 100.475C121.374 100.608 120.434 100.722 119.713 100.817C117.966 101.045 116.333 101.415 114.814 101.928C113.314 102.421 112.099 103.171 111.169 104.178C110.258 105.165 109.802 106.513 109.802 108.222C109.802 110.557 110.666 112.323 112.394 113.519C114.14 114.696 116.352 115.285 119.029 115.285ZM65.8866 118.417C68.9434 120.278 72.5793 121.208 76.7943 121.208C79.7561 121.208 82.4237 120.753 84.797 119.841C87.1702 118.911 89.1638 117.62 90.7776 115.968C92.3915 114.297 93.5401 112.361 94.2236 110.158L87.7303 108.336C87.1607 109.855 86.3538 111.127 85.3096 112.152C84.2653 113.158 83.0217 113.918 81.5788 114.43C80.1548 114.924 78.56 115.171 76.7943 115.171C74.0792 115.171 71.6964 114.582 69.6459 113.405C67.5954 112.209 65.9911 110.472 64.8329 108.193C63.8 106.11 63.2354 103.614 63.139 100.703H94.9071V97.8552C94.9071 93.7732 94.366 90.3367 93.2838 87.5457C92.2016 84.7547 90.7492 82.5143 88.9265 80.8246C87.1038 79.1158 85.0817 77.8817 82.8604 77.1222C80.639 76.3628 78.3891 75.9831 76.1107 75.9831C72.1616 75.9831 68.7061 76.9514 65.7442 78.888C62.8014 80.8056 60.504 83.4826 58.8522 86.9192C57.2194 90.3367 56.403 94.2858 56.403 98.7666C56.403 103.247 57.2194 107.178 58.8522 110.557C60.504 113.918 62.8488 116.538 65.8866 118.417ZM63.1562 94.8934C63.2842 92.8642 63.7956 90.9466 64.6905 89.1405C65.7347 87.0331 67.2252 85.3243 69.1618 84.0143C71.1173 82.6852 73.4337 82.0207 76.1107 82.0207C78.541 82.0207 80.6485 82.5808 82.4332 83.701C84.2369 84.8212 85.6229 86.3496 86.5912 88.2862C87.5784 90.2228 88.0721 92.4252 88.0721 94.8934H63.1562ZM0 120.297V61.971H7.06289V87.9442H38.1624V61.971H45.2253V120.297H38.1624V94.2097H7.06289V120.297H0ZM472.09 120.297V93.9821C472.09 91.4379 472.575 89.2735 473.543 87.4888C474.511 85.7041 475.831 84.3465 477.502 83.4162C479.191 82.4859 481.109 82.0207 483.254 82.0207C486.368 82.0207 488.817 82.989 490.602 84.9256C492.387 86.8432 493.279 89.5203 493.279 92.9568V120.297H500V92.5012C500 88.7798 499.383 85.7041 498.149 83.2738C496.915 80.8246 495.187 79.0019 492.966 77.8058C490.744 76.5907 488.153 75.9831 485.191 75.9831C481.887 75.9831 479.191 76.6666 477.103 78.0336C475.014 79.3816 473.457 81.1664 472.432 83.3877H471.863V76.5527H465.369V120.297H472.09ZM446.338 120.297V76.5527H453.059V120.297H446.338ZM449.755 69.2619C448.445 69.2619 447.315 68.8158 446.366 67.9234C445.436 67.031 444.971 65.9583 444.971 64.7052C444.971 63.4521 445.436 62.3794 446.366 61.487C447.315 60.5947 448.445 60.1485 449.755 60.1485C451.065 60.1485 452.185 60.5947 453.116 61.487C454.065 62.3794 454.54 63.4521 454.54 64.7052C454.54 65.9583 454.065 67.031 453.116 67.9234C452.185 68.8158 451.065 69.2619 449.755 69.2619ZM406.473 119.756C408.733 120.8 411.249 121.322 414.021 121.322C416.565 121.322 418.72 120.943 420.485 120.183C422.251 119.424 423.666 118.503 424.729 117.421C425.792 116.338 426.551 115.323 427.007 114.373H427.349V120.297H434.07V91.4759C434.07 88.0014 433.5 85.2294 432.361 83.1599C431.222 81.0904 429.789 79.543 428.061 78.5178C426.352 77.4925 424.577 76.8185 422.735 76.4957C420.913 76.154 419.299 75.9831 417.894 75.9831C415.691 75.9831 413.451 76.2869 411.173 76.8944C408.913 77.483 406.825 78.5273 404.907 80.0272C403.008 81.5081 401.49 83.5776 400.35 86.2357L406.73 88.514C407.47 86.9192 408.752 85.4193 410.575 84.0143C412.397 82.6093 414.913 81.9068 418.122 81.9068C421.216 81.9068 423.523 82.6852 425.042 84.2421C426.58 85.799 427.349 87.9824 427.349 90.7924V91.0202C427.349 92.1024 426.96 92.8619 426.181 93.2986C425.422 93.7353 424.207 94.0485 422.536 94.2384C420.884 94.4093 418.729 94.6656 416.071 95.0073C414.04 95.2731 412.017 95.6339 410.005 96.0896C408.011 96.5262 406.189 97.1908 404.537 98.0831C402.885 98.9755 401.566 100.21 400.578 101.785C399.591 103.342 399.097 105.374 399.097 107.88C399.097 110.728 399.762 113.158 401.091 115.171C402.42 117.164 404.214 118.693 406.473 119.756ZM421.767 113.718C419.944 114.763 417.704 115.285 415.046 115.285C412.369 115.285 410.157 114.696 408.41 113.519C406.682 112.323 405.818 110.557 405.818 108.222C405.818 106.513 406.274 105.165 407.185 104.178C408.116 103.171 409.331 102.421 410.831 101.928C412.35 101.415 413.983 101.045 415.729 100.817C416.451 100.722 417.391 100.608 418.549 100.475C419.726 100.323 420.932 100.153 422.166 99.9628C423.419 99.7539 424.52 99.5166 425.469 99.2508C426.438 98.966 427.064 98.6527 427.349 98.3109V104.463C427.349 106.285 426.874 108.022 425.925 109.674C424.995 111.326 423.609 112.674 421.767 113.718ZM388.838 61.9711V120.297H382.117V61.9711H388.838ZM333.246 76.5527V136.701H339.967V113.576H340.537C341.031 114.373 341.733 115.38 342.645 116.595C343.556 117.791 344.856 118.864 346.546 119.813C348.236 120.743 350.486 121.208 353.296 121.208C356.941 121.208 360.159 120.288 362.95 118.446C365.741 116.585 367.925 113.965 369.501 110.586C371.076 107.187 371.864 103.171 371.864 98.5388C371.864 93.9441 371.076 89.957 369.501 86.5774C367.925 83.1979 365.732 80.5873 362.922 78.7456C360.112 76.9039 356.865 75.9831 353.182 75.9831C350.334 75.9831 348.075 76.4578 346.404 77.4071C344.752 78.3374 343.48 79.4006 342.588 80.5968C341.714 81.7739 341.031 82.7422 340.537 83.5017H339.74V76.5527H333.246ZM341.306 107.168C340.338 104.643 339.854 101.728 339.854 98.4249C339.854 95.1592 340.328 92.3018 341.277 89.8526C342.227 87.3844 343.632 85.4667 345.492 84.0997C347.353 82.7137 349.65 82.0207 352.384 82.0207C355.232 82.0207 357.596 82.7517 359.476 84.2136C361.374 85.6566 362.789 87.6217 363.719 90.1089C364.669 92.5771 365.143 95.3491 365.143 98.4249C365.143 101.539 364.659 104.368 363.691 106.912C362.741 109.437 361.317 111.449 359.419 112.949C357.539 114.43 355.194 115.171 352.384 115.171C349.688 115.171 347.41 114.468 345.549 113.063C343.689 111.639 342.274 109.674 341.306 107.168Z" fill="url(#paint0_linear_7_72)"/>
<defs>
<linearGradient id="paint0_linear_7_72" x1="501.238" y1="120.297" x2="5.11378e-06" y2="63.49" gradientUnits="userSpaceOnUse">
<stop stop-color="#02023E" stop-opacity="0.8"/>
<stop offset="1" stop-color="#07AAB8"/>
</linearGradient>
</defs>
</svg>
