<svg width="169" height="166" viewBox="0 0 169 166" fill="none" xmlns="http://www.w3.org/2000/svg">
<path d="M84.8121 165.911C38.3699 165.911 0.629395 128.669 0.629395 82.8328C0.629395 36.9962 38.3699 0.335281 84.8121 0.335281C131.254 0.335281 168.995 37.5768 168.995 83.4074C168.995 129.238 131.254 165.911 84.8121 165.911ZM84.8121 11.7915C44.7586 11.7915 12.2414 43.8794 12.2414 83.4074C12.2414 122.935 44.7527 155.023 84.8121 155.023C124.871 155.023 157.383 122.941 157.383 83.4074C157.383 43.8735 124.871 11.7915 84.8121 11.7915Z" fill="#1D2445"/>
<path d="M45.6368 60.0211C41.7456 64.1474 39.5747 69.631 39.5747 75.3336C39.5747 81.0362 41.7456 86.5198 45.6368 90.646L83.4944 130.725L112.422 100.1L74.5585 60.0211C66.4775 51.4675 53.7237 51.4675 45.6368 60.0211Z" fill="#1D2445"/>
<path d="M121.352 60.0211C125.243 64.1474 127.414 69.631 127.414 75.3336C127.414 81.0362 125.243 86.5198 121.352 90.646L83.4944 130.725L54.5669 100.1L92.4245 60.0211C100.505 51.4675 113.693 51.4675 121.352 60.0211Z" fill="#1D2445"/>
</svg>
