<svg width="586" height="166" viewBox="0 0 586 166" fill="none" xmlns="http://www.w3.org/2000/svg">
<path d="M57.1067 160.177H499.487C542.451 160.177 577.287 125.802 577.287 83.4074C577.287 41.0124 542.451 6.63795 499.487 6.63795H57.1067C27.4999 6.63795 3.11646 30.6995 3.11646 59.9204V106.326C3.11646 136.121 27.4999 160.177 57.1067 160.177Z" fill="white"/>
<path d="M499.487 163.044H57.1066C25.7548 163.044 0.211914 137.833 0.211914 106.326V59.9204C0.211914 28.9816 25.7548 3.77095 57.1066 3.77095H499.493C544.196 3.77095 580.192 39.2946 580.192 83.4074C580.192 126.946 543.616 163.044 499.499 163.044H499.487ZM57.1066 9.50496C28.6593 9.50496 6.02084 32.4173 6.02084 59.9145V106.326C6.02084 134.403 28.6593 156.741 57.1066 156.741H499.493C540.718 156.741 574.388 123.51 574.388 82.8328C574.388 42.1557 540.712 8.9363 499.487 8.9363L57.1066 9.50496Z" fill="#1D2445"/>
<path d="M501.812 165.911C455.37 165.911 417.629 128.669 417.629 82.8328C417.629 36.9962 455.37 0.335281 501.812 0.335281C548.254 0.335281 585.995 37.5768 585.995 83.4074C585.995 129.238 548.254 165.911 501.812 165.911ZM501.812 11.7915C461.759 11.7915 429.241 43.8794 429.241 83.4074C429.241 122.935 461.753 155.023 501.812 155.023C541.871 155.023 574.383 122.941 574.383 83.4074C574.383 43.8735 541.871 11.7915 501.812 11.7915Z" fill="#1D2445"/>
<path d="M462.637 60.0211C458.746 64.1474 456.575 69.631 456.575 75.3336C456.575 81.0362 458.746 86.5198 462.637 90.646L500.494 130.725L529.422 100.1L491.559 60.0211C483.478 51.4675 470.724 51.4675 462.637 60.0211Z" fill="#1D2445"/>
<path d="M538.352 60.0211C542.243 64.1474 544.414 69.631 544.414 75.3336C544.414 81.0362 542.243 86.5198 538.352 90.646L500.494 130.725L471.567 100.1L509.424 60.0211C517.505 51.4675 530.693 51.4675 538.352 60.0211Z" fill="#1D2445"/>
</svg>
