<svg width="148" height="148" viewBox="0 0 148 148" fill="none" xmlns="http://www.w3.org/2000/svg">
<g id="icons8-arrow 1">
<path id="Vector" d="M49.95 126.566V96.2L77.7 96.2C113.439 96.2 142.45 67.1891 142.45 31.45V27.75H112.85V31.45C112.85 50.8853 97.1354 66.6 77.7 66.6L49.95 66.6V36.234L4.784 81.4L49.95 126.566ZM46.25 117.634L10.016 81.4L46.25 45.166L46.25 70.3L77.7 70.3C99.1349 70.3 116.55 52.8848 116.55 31.45H138.75C138.75 65.1895 111.44 92.5 77.7 92.5L46.25 92.5V117.634ZM40.7 105.45C41.1907 105.45 41.6612 105.255 42.0082 104.908C42.3551 104.561 42.55 104.091 42.55 103.6C42.55 103.109 42.3551 102.639 42.0082 102.292C41.6612 101.945 41.1907 101.75 40.7 101.75C40.2094 101.75 39.7388 101.945 39.3919 102.292C39.0449 102.639 38.85 103.109 38.85 103.6C38.85 104.091 39.0449 104.561 39.3919 104.908C39.7388 105.255 40.2094 105.45 40.7 105.45ZM35.15 99.9C35.6407 99.9 36.1112 99.7051 36.4582 99.3581C36.8051 99.0112 37 98.5406 37 98.05C37 97.5593 36.8051 97.0888 36.4582 96.7418C36.1112 96.3949 35.6407 96.2 35.15 96.2C34.6594 96.2 34.1888 96.3949 33.8419 96.7418C33.4949 97.0888 33.3 97.5593 33.3 98.05C33.3 98.5406 33.4949 99.0112 33.8419 99.3581C34.1888 99.7051 34.6594 99.9 35.15 99.9ZM29.6 94.35C30.0907 94.35 30.5612 94.1551 30.9082 93.8081C31.2551 93.4612 31.45 92.9906 31.45 92.5C31.45 92.0093 31.2551 91.5388 30.9082 91.1918C30.5612 90.8449 30.0907 90.65 29.6 90.65C29.1094 90.65 28.6388 90.8449 28.2919 91.1918C27.9449 91.5388 27.75 92.0093 27.75 92.5C27.75 92.9906 27.9449 93.4612 28.2919 93.8081C28.6388 94.1551 29.1094 94.35 29.6 94.35ZM77.7542 88.8L79.2357 88.0557L79.5283 86.4261L78.3938 85.212L77.7542 85.1L76.2728 85.8407L75.9801 87.4739L77.111 88.6844L77.7542 88.8ZM70.3398 88.8L71.8212 88.0557L72.1139 86.4261L70.9829 85.2156L70.3398 85.1L68.8583 85.8443L68.5656 87.4739L69.6966 88.6844L70.3398 88.8ZM62.9253 88.8L64.4067 88.0557L64.6994 86.4261L63.5685 85.2156L62.9253 85.1L61.4439 85.8443L61.1512 87.4739L62.2858 88.6844L62.9253 88.8ZM55.5145 88.8L56.9959 88.0557L57.2886 86.4261L56.154 85.2156L55.5145 85.1L54.0294 85.8443L53.7403 87.4739L54.8713 88.6844L55.5145 88.8ZM48.1 88.8C48.3452 88.8035 48.5885 88.7582 48.816 88.6668C49.0435 88.5753 49.2506 88.4396 49.4252 88.2675C49.5998 88.0954 49.7384 87.8902 49.833 87.6641C49.9276 87.4379 49.9764 87.1952 49.9764 86.95C49.9764 86.7048 49.9276 86.4621 49.833 86.2359C49.7384 86.0097 49.5998 85.8046 49.4252 85.6325C49.2506 85.4604 49.0435 85.3246 48.816 85.2332C48.5885 85.1418 48.3452 85.0965 48.1 85.1C47.8549 85.0965 47.6115 85.1418 47.384 85.2332C47.1565 85.3246 46.9494 85.4604 46.7749 85.6325C46.6003 85.8046 46.4616 86.0097 46.367 86.2359C46.2724 86.4621 46.2237 86.7048 46.2237 86.95C46.2237 87.1952 46.2724 87.4379 46.367 87.6641C46.4616 87.8902 46.6003 88.0954 46.7749 88.2675C46.9494 88.4396 47.1565 88.5753 47.384 88.6668C47.6115 88.7582 47.8549 88.8035 48.1 88.8ZM24.05 88.8C24.5407 88.8 25.0112 88.6051 25.3582 88.2581C25.7051 87.9112 25.9 87.4406 25.9 86.95C25.9 86.4593 25.7051 85.9888 25.3582 85.6418C25.0112 85.2949 24.5407 85.1 24.05 85.1C23.5594 85.1 23.0888 85.2949 22.7419 85.6418C22.3949 85.9888 22.2 86.4593 22.2 86.95C22.2 87.4406 22.3949 87.9112 22.7419 88.2581C23.0888 88.6051 23.5594 88.8 24.05 88.8ZM85.147 88.3014L86.6284 87.5606L86.9211 85.9274L85.7865 84.717L85.147 84.6014L83.6619 85.3457L83.3729 86.9753L84.5038 88.1857L85.147 88.3014ZM92.4061 86.8271L93.8875 86.0828L94.1802 84.4532L93.0456 83.2428L92.4061 83.1271L90.9246 83.8679L90.6319 85.5011L91.7629 86.7115L92.4061 86.8271ZM99.4014 84.3954L100.883 83.6511L101.175 82.0215L100.045 80.811L99.4014 80.6954L97.9199 81.4361L97.6273 83.0693L98.7618 84.2798L99.4014 84.3954ZM18.5 83.25C18.9907 83.25 19.4612 83.0551 19.8082 82.7081C20.1551 82.3612 20.35 81.8906 20.35 81.4C20.35 80.9093 20.1551 80.4388 19.8082 80.0918C19.4612 79.7449 18.9907 79.55 18.5 79.55C18.0094 79.55 17.5388 79.7449 17.1919 80.0918C16.8449 80.4388 16.65 80.9093 16.65 81.4C16.65 81.8906 16.8449 82.3612 17.1919 82.7081C17.5388 83.0551 18.0094 83.25 18.5 83.25ZM106.01 81.0459L107.492 80.3016L107.784 78.672L106.653 77.4615L106.01 77.3459L104.529 78.0866L104.236 79.7198L105.367 80.9303L106.01 81.0459ZM112.109 76.84L113.591 76.0993L113.883 74.4661L112.752 73.2557L112.109 73.14L110.628 73.8844L110.335 75.5176L111.47 76.728L112.109 76.84ZM117.598 71.8682L119.079 71.1238L119.372 69.4942L118.241 68.2802L117.598 68.1682L116.116 68.9089L115.824 70.5421L116.958 71.7525L117.598 71.8682ZM122.382 66.2098L123.863 65.469L124.156 63.8358L123.021 62.6254L122.382 62.5098L120.9 63.2541L120.608 64.8837L121.739 66.0941L122.382 66.2098ZM126.371 59.9696L127.852 59.2253L128.145 57.5957L127.01 56.3852L126.371 56.2696L124.889 57.0103L124.597 58.6435L125.728 59.854L126.371 59.9696ZM129.493 53.2525L130.974 52.5082L131.267 50.8786L130.132 49.6682L129.493 49.5525L128.008 50.2933L127.719 51.9265L128.85 53.1369L129.493 53.2525ZM131.682 46.1777L133.167 45.4334L133.457 43.8038L132.326 42.5934L131.682 42.4777L130.201 43.2185L129.908 44.8517L131.043 46.0621L131.682 46.1777ZM132.925 38.85C133.171 38.8535 133.414 38.8082 133.641 38.7168C133.869 38.6253 134.076 38.4896 134.251 38.3175C134.425 38.1454 134.564 37.9402 134.658 37.7141C134.753 37.4879 134.802 37.2452 134.802 37C134.802 36.7548 134.753 36.5121 134.658 36.2859C134.564 36.0597 134.425 35.8546 134.251 35.6825C134.076 35.5104 133.869 35.3746 133.641 35.2832C133.414 35.1918 133.171 35.1465 132.925 35.15C132.68 35.1465 132.437 35.1918 132.209 35.2832C131.982 35.3746 131.775 35.5104 131.6 35.6825C131.426 35.8546 131.287 36.0597 131.192 36.2859C131.098 36.5121 131.049 36.7548 131.049 37C131.049 37.2452 131.098 37.4879 131.192 37.7141C131.287 37.9402 131.426 38.1454 131.6 38.3175C131.775 38.4896 131.982 38.6253 132.209 38.7168C132.437 38.8082 132.68 38.8535 132.925 38.85Z" fill="black"/>
</g>
</svg>
