<svg xmlns="http://www.w3.org/2000/svg" viewBox="0 0 1200 800" width="1200" height="800"><g transform="translate(200.0 120.0) rotate(0.0 400.0 280.0) scale(0.9707477305738211 0.9703556353403523)"><svg width="824.107" height="577.108" viewBox="0 0 824.107 577.108"><path d="M293.113 252.015a165.726 165.726 0 0 1-38.5 41.81l-.01.009c-39.88 30.321-87.68 35.98-119.87 18.77-20.23-10.8-34.29-30.639-36.37-59.049-1.42-19.511 3.06-41.451 13.33-65.471a265.324 265.324 0 0 1 12.441-25.14 16 16 0 1 1 27.939 15.611c-64.15 114.8 26.15 137.259 87.94 85.67a133.048 133.048 0 0 0 26.271-29.65 16 16 0 0 1 26.829 17.44z" fill="#df5468"/><path d="M140.554 309.646a7.829 7.829 0 0 1-9.408.909c-18.293-11.171-30.828-30.3-32.783-57-.924-12.7.651-26.424 4.694-41.084a16.312 16.312 0 0 1 11.827-11.655c7.351-1.715 14.322 2.213 9.479 17.189-12.53 38.74-3 53.119 15.29 75.82 5.096 6.324 4.665 12.266.901 15.821z" fill="#ff6d6d"/><path d="M175.6 323.2c-14.938 0-29.106-3.176-41.333-9.713-21.819-11.648-34.923-32.906-36.9-59.858-1.427-19.607 3.084-41.791 13.408-65.937a267.6 267.6 0 0 1 12.487-25.235 17 17 0 1 1 29.686 16.585c-26.065 46.645-28.992 83.366-8.031 100.748 10.166 8.431 25.313 11.49 42.65 8.617 17.641-2.925 36.04-11.785 51.806-24.949a131.7 131.7 0 0 0 26.073-29.428 17 17 0 0 1 28.507 18.53 166.465 166.465 0 0 1-38.7 42.036l-.042.034C230.6 313.339 201.909 323.2 175.6 323.2zm-37.47-167.463a15.076 15.076 0 0 0-4.109.574 14.905 14.905 0 0 0-9.009 7.122 265.53 265.53 0 0 0-12.394 25.045c-10.2 23.85-14.656 45.72-13.252 65.005 1.921 26.243 14.651 46.926 35.843 58.24 33.08 17.685 80.8 10.184 118.762-18.659a.598.598 0 0 1 .042-.035 164.485 164.485 0 0 0 38.267-41.559 15 15 0 1 0-25.152-16.35 133.747 133.747 0 0 1-26.468 29.873c-33.157 27.683-74.865 34.7-97.015 16.336-21.775-18.058-19.019-55.7 7.561-103.262a15.017 15.017 0 0 0-13.075-22.331zM97.321 292.33a1 1 0 0 1-.87-.5c-5.752-10.062-9.146-21.8-10.085-34.9a114.613 114.613 0 0 1 .98-24.247 1 1 0 1 1 1.98.282 112.608 112.608 0 0 0-.965 23.822c.918 12.793 4.224 24.248 9.827 34.047a1 1 0 0 1-.867 1.5z" fill="#670a39"/><path d="M215.5 158.725c-5.11 21.759-21 39.2-48.42 41.939-8.989.9-17.51-.689-25.279-6.209-19.521 1.879-39.417-14.081-46.741-33.1-10.46-27.2 8.355-60.529 30.68-60.529v-.011a46.3 46.3 0 0 1 9.73.1c10.34-5.689 24.63-2.439 33.97 4.871v.009a31.8 31.8 0 0 1 19.88 6.48c.231.181.47.381.7.571a48.447 48.447 0 0 1 11.41 14.69c4.54-2.451 9.3-2.2 12.42.48 9.744 8.398 3.263 23.869 1.65 30.709z" fill="#df5468"/><path d="M125.743 100.815a46.282 46.282 0 0 1 9.74.1c20.32 2.3 30.68 13.49 31.67 34 .85 17.55-7.78 27.55-22.75 34.8-19.288 9.338-31.07-14.73-12.85-25.71 3.06-1.84 5.2-8.45 2.21-11.8z" fill="#df5468"/><path d="M124.823 100.834c-12.689.591-30.92 14.531-32.51 41.69a39.121 39.121 0 0 0 1.323 14.485v.006a53.98 53.98 0 0 0 13.195 22.569c9.407 9.742 25.166-2.272 17.744-13.9l-.992-1.769c.015-.022.032-.04.047-.062 14.044 6.447 32.756-13.9 32.756-30.1-.002-16.309-13.573-29.908-31.563-32.919z" fill="#ff6d6d"/><path d="M162.453 201.9a35.518 35.518 0 0 1-20.927-6.423 37.578 37.578 0 0 1-16.652-2.524 1 1 0 0 1 .713-1.869 35.486 35.486 0 0 0 16.119 2.369.983.983 0 0 1 .675.18c7.051 5.012 15.1 6.985 24.6 6.034 24.649-2.468 41.98-17.477 47.548-41.179.239-1.015.571-2.175.955-3.519 2.215-7.74 5.561-19.436-2.289-26.2-2.835-2.443-7.162-2.579-11.292-.354a1 1 0 0 1-1.368-.431 47.13 47.13 0 0 0-11.172-14.384 27.799 27.799 0 0 0-.665-.552 30.912 30.912 0 0 0-19.224-6.256.981.981 0 0 1-.714-.273c-9.136-7.111-24.351-10.785-34.631-3.6a1.006 1.006 0 0 1-.842.144 37.569 37.569 0 0 0-5.919-1.156c-5.672-.646-12.62 1.961-18.582 6.976-5.3 4.462-14.368 14.774-15.477 33.7-1.519 14.5 6.638 31.244 20.3 41.72a1 1 0 0 1-1.216 1.587c-14.411-11.053-22.682-28.116-21.072-43.47 1.149-19.628 10.632-30.4 16.182-35.068 6.374-5.362 13.89-8.139 20.1-7.433a40.218 40.218 0 0 1 5.778 1.093c10.976-7.325 26.805-3.589 36.414 3.772a33.007 33.007 0 0 1 20.159 6.7c.242.194.488.4.724.6a49.131 49.131 0 0 1 11.2 14.111c4.6-2.133 9.374-1.756 12.636 1.055 8.819 7.6 5.118 20.538 2.907 28.267-.377 1.319-.7 2.458-.931 3.426-5.776 24.586-23.743 40.154-49.3 42.712a47.34 47.34 0 0 1-4.737.245z" fill="#670a39"/><path d="M171.2 185.734h-.01c-3.851-1.878-5.9-3.232-8.33-6.759l9.96-6.38 8.05-8.23 4.11-16.64 1.51-21.13c-1.712-4.551 4.231 11.242-7.83-20.81 11.571 1.882 22.368 9.889 28.94 26.85 10.813 31.804-17.087 61.094-36.4 53.099z" fill="#df5468"/><path d="M199.693 161.044a44.429 44.429 0 0 1-22.3 22.271 12.619 12.619 0 0 1-15.464-4.239l-.071-.1 9.96-6.38 8.05-8.23 4.11-16.64 1.51-21.13-7.83-20.81a31.8 31.8 0 0 1 11.73 4.359c.05.05.11.09.161.141 14.085 11.219 18.744 32.229 10.144 50.758z" fill="#ff6d6d"/><path d="M177.773 188.346c-6.214 0-11.741-3-15.734-8.805a14.788 14.788 0 0 1-2.435-6.031 1 1 0 1 1 1.979-.29 12.765 12.765 0 0 0 2.109 5.2c5.6 8.152 14.626 10.13 24.128 5.282 15.008-7.658 26.479-29.23 18.841-50.729-8.523-21.914-26.136-29.579-39.129-25.814a1 1 0 0 1-.557-1.921c13.864-4.021 32.592 3.977 41.56 27.038 8.011 22.547-4.046 45.166-19.806 53.208a24.181 24.181 0 0 1-10.956 2.862z" fill="#670a39"/><path d="M161.773 180.434c-11.739 3.638-22.876-2.059-24.65-10.209l19.261-18.061 1.529-35.259-20.79-15.79C142 97 151.81 96.234 157.973 97.444c18.95 3.711 29.311 12.521 32.72 36.7 2.64 18.75-7.21 39.601-28.92 46.29z" fill="#df5468"/><path d="M182.333 138.144c0 20.117-13.683 36.882-31.771 40.5a11.5 11.5 0 0 1-12.72-6.311q-.162-.357-.3-.724a19.07 19.07 0 0 0 6.86-1.889c14.97-7.25 23.6-17.25 22.75-34.8-.96-19.949-10.79-31.08-30.019-33.79l-.011-.009c2.63-2.221 6.59-3.44 10.59-3.921 19.481 2.335 34.621 19.775 34.621 40.944z" fill="#ff6d6d"/><path d="M154.365 182.591c-8.751 0-15.641-4.787-17.771-10.645a1 1 0 1 1 1.879-.683c2.422 6.659 12.242 11.55 23 8.216 21.765-6.706 30.674-27.812 28.226-45.2-3.13-22.2-11.782-31.915-31.922-35.858-6.349-1.247-15.571-.3-20.013 3.453a1 1 0 0 1-1.29-1.529c5.085-4.292 14.968-5.207 21.688-3.887 20.887 4.09 30.285 14.615 33.517 37.542 2.566 18.222-6.783 40.349-29.615 47.385a26.024 26.024 0 0 1-7.699 1.206z" fill="#670a39"/><path d="M135.918 172.85a14.128 14.128 0 0 1-12.654-7.449c-4.712-8.7.344-17.776 7.773-22.253 1.449-.871 2.708-3.119 3.064-5.467a5.972 5.972 0 0 0-1.084-4.811 1 1 0 1 1 1.493-1.331 7.737 7.737 0 0 1 1.569 6.441c-.446 2.942-2.058 5.707-4.01 6.881-9.147 5.512-10.065 14.018-7.047 19.587 2.893 5.338 9.873 8.758 18.946 4.366 16.1-7.8 22.942-18.237 22.186-33.851-.965-20.007-11.035-30.82-30.783-33.055a45.355 45.355 0 0 0-9.514-.1 1 1 0 1 1-.227-1.987 46.536 46.536 0 0 1 9.966.1c20.886 2.364 31.535 13.795 32.556 34.946.8 16.526-6.389 27.552-23.313 35.747a20.487 20.487 0 0 1-8.921 2.236zm157.196 79.168a165.71 165.71 0 0 1-38.5 41.81c9.65-11.95-.57-30.39-14.59-29.59l-.01-.01a132.976 132.976 0 0 0 26.27-29.65 16 16 0 0 1 26.83 17.44z" fill="#670a39"/><path d="M254.615 294.828a1 1 0 0 1-.779-1.628c4.134-5.119 4.706-12.187 1.493-18.445-3.147-6.131-9.131-9.865-15.248-9.518a1 1 0 0 1-.781-.309 1.01 1.01 0 0 1 .073-1.468 131.721 131.721 0 0 0 26.073-29.427 17 17 0 0 1 28.507 18.53 166.506 166.506 0 0 1-38.733 42.061 1 1 0 0 1-.605.204zm-11.981-31.516a18.994 18.994 0 0 1 14.475 10.529 19.24 19.24 0 0 1 1.008 15.958 165.725 165.725 0 0 0 34.159-38.326 15 15 0 0 0-25.154-16.35 133.878 133.878 0 0 1-24.488 28.189z" fill="#670a39"/><path d="M583.3 442.875c7.864 31.047 18.038 64.06 42.618 76.23a42.926 42.926 0 0 0 7.493 2.927c36.558 10.613 54.869-40.9 49.867-88.212-5.164-49.042-37.675-99.436-77.343-104.084a51.916 51.916 0 0 0-23.328 2.663c-38.751 13.484-10.007 68.253.693 110.476z" fill="#df5468"/><path d="M583.3 442.875c7.864 31.047 18.038 64.06 42.618 76.23 13.966.045 28.835-8.265 39.75-34.974 25.818-63.193-16.757-134.018-59.733-154.395a51.916 51.916 0 0 0-23.328 2.663c-38.751 13.484-10.007 68.253.693 110.476z" fill="#af4357"/><path d="M642.875 524.452a34.862 34.862 0 0 1-9.741-1.46 44.143 44.143 0 0 1-7.663-2.992c-24.968-12.362-35.359-46.165-43.138-76.878-2.19-8.634-5.2-18-8.113-27.054-11.633-36.171-23.662-73.574 8.06-84.612a53.012 53.012 0 0 1 23.773-2.711c42.006 4.921 73.309 58.32 78.221 104.972 3.714 35.119-5.4 69.44-22.152 83.463a29.352 29.352 0 0 1-19.247 7.272zM600.027 330.39a51.813 51.813 0 0 0-17.09 2.953c-29.877 10.4-18.152 46.853-6.814 82.11 2.922 9.086 5.944 18.48 8.148 27.176 7.67 30.281 17.881 63.592 42.093 75.579a42.118 42.118 0 0 0 7.323 2.862c10.182 2.957 19.317 1.13 27.152-5.426 16.275-13.62 25.094-47.224 21.446-81.719-2.536-24.082-11.849-48.945-25.553-68.215-14.515-20.412-32.6-32.835-50.912-34.98a49.731 49.731 0 0 0-5.793-.34zm88.589 162.366a1 1 0 0 1-.944-1.331c5.655-16.163 7.7-36.756 5.613-56.5a1 1 0 0 1 1.989-.21c2.117 20.027.035 40.938-5.714 57.371a1 1 0 0 1-.944.67z" fill="#670a39"/><path d="M610.693 359.745c-9.46 67.27-35.5 109.05-75.31 120.82a85.547 85.547 0 0 1-38.67 1.95c-.18-.02-.36-.05-.55-.09-.49-.08-.98-.17-1.47-.26s-.96-.18-1.45-.28h-.03c-25.1-5.03-50.55-19.22-74.43-37.26-31.36-23.69-60.02-54.03-81.69-78.99a16 16 0 0 1 24.16-20.98q6 6.915 11.88 13.39c28.31 31.13 54.75 54.85 78.5 70.64 29.54 19.65 54.94 27.04 74.67 21.2 26.51-7.84 45.23-41.44 52.7-94.59a16 16 0 1 1 31.69 4.45z" fill="#af4357"/><path d="M496.713 482.515c-.18-.02-.36-.05-.55-.09-.49-.08-.98-.17-1.47-.26s-.96-.18-1.45-.28h-.03c-25.1-5.03-50.55-19.22-74.43-37.26-31.36-23.69-60.02-54.03-81.69-78.99a16 16 0 0 1 24.16-20.98q6 6.915 11.88 13.39c29.64 72.91 111.69 101.95 140.09 106.97 29.5 5.21 12.56 22.04-16.51 17.5z" fill="#df5468"/><path d="M451.634 428.688c-16.25-6.06-36.2 4.18-32.84 15.94h-.01c-31.36-23.69-60.02-54.03-81.69-78.99a16 16 0 1 1 24.16-20.98c32.81 37.79 63.33 66.05 90.38 84.03z" fill="#670a39"/><path d="M418.794 445.628a1.031 1.031 0 0 1-.613-.2c-25.692-19.409-52.463-45.293-81.842-79.132A17 17 0 1 1 362.009 344c32.574 37.518 62.915 65.73 90.178 83.852a1 1 0 0 1-.9 1.77c-10.633-3.965-22.338-.588-27.955 4.6-3.3 3.049-4.568 6.644-3.574 10.124a1 1 0 0 1-.961 1.275zM349.168 340.16a14.987 14.987 0 0 0-11.319 24.823c28.538 32.87 54.594 58.2 79.575 77.353-.114-3.384 1.448-6.711 4.547-9.576 5.188-4.793 14.633-8.069 24.307-6.513-26.155-18.267-54.985-45.464-85.779-80.933a14.963 14.963 0 0 0-11.331-5.154z" fill="#670a39"/><path d="M512.286 484.858c-48.474 0-107.508-39.742-175.946-118.561a17 17 0 0 1 25.672-22.292C430.371 422.733 488.62 460 526.025 448.929c23.892-7.069 41.668-36.123 50.054-81.81a1 1 0 1 1 1.967.361c-8.529 46.466-26.8 76.073-51.454 83.367a49.957 49.957 0 0 1-14.221 1.975c-37.9 0-91.011-37.416-151.869-107.506a15 15 0 0 0-22.653 19.67c79.3 91.326 145.667 129.895 197.256 114.628 40.3-11.926 66.3-54.929 75.18-124.362a1 1 0 0 1 1.984.254c-8.987 70.279-35.474 113.858-76.6 126.026a82.007 82.007 0 0 1-23.383 3.326z" fill="#670a39"/><path d="M671.844 240.644q-1.487 3.151-3.111 6.361a356.21 356.21 0 0 1-29.26 47.34q-4.335 6-9.129 11.77c-22.361 26.92-51.96 50.04-84.441 69.079-10.46 6.151-21.23 11.87-32.14 17.151-10.33 5-20.78 9.62-31.25 13.83a511.241 511.241 0 0 1-71.47 22.979h-.03a431.55 431.55 0 0 1-20.34 4.391c-11.69-5.691-24.65-14.811-37.889-26.68a312.229 312.229 0 0 1-33.75-35.77c-39.581-48.83-74-117.75-75.351-187.56-1.96-101.5 47.94-187.851 138.29-182.28 26.42 1.63 47.6 12.82 64.19 26.95 3.2 2.729 6.23 5.56 9.09 8.459q.66.66 1.29 1.32 2.986-1.769 6.04-3.38c52.551-27.849 119.28-22.5 166.89 8.641 23.911 15.64 42.99 37.779 53.03 65.48a127.866 127.866 0 0 1 6.41 25.879c4.21 29.871 3.24 63.04-17.069 106.04z" fill="#df5468"/><path d="M614.092 323.815c-18.547 18.377-40.427 34.692-63.929 48.849-51.31 30.92-110.37 51.551-159.49 60.881-11.69-5.691-24.65-14.811-37.889-26.68a312.229 312.229 0 0 1-33.75-35.77 372.839 372.839 0 0 1-42.561-65.661 331.6 331.6 0 0 1-20.07-48.669L519.886 288.1c13.594 29.353 50.128 44.419 94.206 35.715z" fill="#af4357"/><path d="M369.693 393.7a190.446 190.446 0 0 0 13.12 27.86 125.941 125.941 0 0 0 7.86 11.99c-12.88-6.27-25.83-15.83-37.97-26.76-4.94-4.42-11.56-10.83-17.52-17.18h-.01c-4.88-5.2-11.24-12.46-16.14-18.51h.01c-1.1-1.35-3.03-3.77-3.5-4.37h.01c-.77-.98-1.54-1.95-2.28-2.92l10.12-1.79 15.19-2.69 127.23 24.18s-3.85 5.41-12.95 17.77c-29.04-11.22-58.77-15.82-77.61-15.73a6 6 0 0 0-5.56 8.15z" fill="#670a39"/><path d="M547.9 272.858c-49.406 49.264-102.62 85.162-178.7 106.37a144.352 144.352 0 0 1-25.466-12.878c-40.861-25.53-70.178-65.814-83.626-112.08a253.631 253.631 0 0 1-10.428-65.732c-1.36-70.33 22.18-133.39 66.83-163.63C353.652 2 404.162 19.421 420.634 80.068c28.811-35.56 82.164-52.222 124.25-31.58 69.316 33.996 72.168 155.421 3.016 224.37z" fill="#df5468"/><path d="M681.473 105.984c-30.75-13.54-74.46-3.279-92.68 10.921l-130.38-38.79 17.56-49.781c63.05-25.81 141.29-8.279 183.621 41.221a126.449 126.449 0 0 1 21.879 36.429z" fill="#ed7981"/><path d="M659.594 69.555c-28.581-3.761-60.671 5.529-77.781 21.06L426.934 61.07l12.85-11.485 16.759-11.6c65.54-38.81 156.25-23.16 203.051 31.57z" fill="#af4357"/><path d="M676.094 94.055c-3.681 16.52-19.281 31.65-40.691 37.35-28.14 7.5-55.67-4.131-61.49-25.961s12.29-45.61 40.431-53.11a64.939 64.939 0 0 1 25.419-1.719 138.272 138.272 0 0 1 19.831 18.94 127.814 127.814 0 0 1 16.5 24.5z" fill="#ed7981"/><path d="M371.872 385.56c24.572-.058 52.382 4.659 80.992 15.718 9.1-12.36 12.95-17.77 12.95-17.77l-127.23-24.18-23.04 7.4c1.163 1.48 2.336 2.922 3.509 4.367h-.019c.258.319.519.624.778.941.531.65 1.063 1.29 1.6 1.933q1.572 1.9 3.153 3.755.718.843 1.438 1.677 1.713 1.983 3.433 3.91c.405.455.81.914 1.215 1.364q1.965 2.179 3.934 4.285c.2.212.394.434.592.645 5.866 6.246 11.762 12.026 17.605 17.261-14.882-14.393-.608-20.184 19.09-21.306z" fill="#670a39"/><path d="M456.534 37.978c-12.8 7.62-31.294 23.73-41.9 37.09-.01.01-96.214-56.838-96.224-56.828 7.37-6.415 13.559-9.625 28.534-14.24a121.119 121.119 0 0 1 35.03-2.74c32.28 1.988 56.74 18.248 74.56 36.718z" fill="#af4357"/><path d="M541.9 267.858c-49.406 49.264-102.62 85.162-178.7 106.37a144.352 144.352 0 0 1-25.466-12.878c-40.861-25.53-70.178-65.814-83.626-112.08a253.631 253.631 0 0 1-10.428-65.732c-1.36-70.33 22.18-133.39 66.83-163.63C347.652-3 398.162 14.421 414.634 75.068c28.811-35.56 82.164-52.222 124.25-31.58 69.316 33.996 72.168 155.421 3.016 224.37z" fill="#ff6d6d"/><path d="M332.138 9.093c9.487-3.839 17.305-3.4 16.948-1.047-.306 2.387-6.736 5.465-13.966 8.43-7.26 2.889-14.026 5.141-15.9 3.636-1.894-1.447 3.426-7.191 12.918-11.019zM299.178 28.8c7.99-6.4 17.425-5.937 18.875-2.178 1.534 3.808-3.5 8.9-9.56 13.839-6.152 4.817-12.236 8.6-15.609 6.266-3.345-2.25-1.709-11.553 6.294-17.927zm287.016 54.952c13.708 29.188 6.369 53.626 2.639 49.38-4.056-3.371-6.663-23.007-15.2-40.876-7.918-18.195-19.77-32.029-20.416-38.1-1.585-6.045 18.603.876 32.977 29.596z" fill="#fff8ea"/><path d="M390.673 433.545c-12.88-6.27-25.83-15.83-37.97-26.76-4.94-4.42-11.56-10.83-17.52-17.18h-.01c-4.88-5.2-11.24-12.46-16.14-18.51h.01c-1.1-1.35-3.03-3.77-3.5-4.37h.01c-.77-.98-1.54-1.95-2.28-2.92l10.12-1.79a73.218 73.218 0 0 0 7.85 11.16c13.69 16.31 33.717 37.508 53.017 50.818 2.696 4.197 3.64 5.832 6.413 9.552z" fill="#df5468"/><path d="M639.473 294.346c-52.22 72.4-157.07 119.589-238.82 137.169q-5.055 1.1-9.98 2.03c-2.707-3.627-4.98-7.146-6.413-9.552 85.386-17.22 195.061-60.495 246.573-131.718 50.64-70.009 54.64-116.89 48.88-157.57-11.97-84.59-102.28-129.03-181.74-113.49 81.98-20.07 178.49 25.051 190.94 113.39 5.81 41.23 1.76 88.76-49.44 159.741z" fill="#ed7981"/><path d="M390.673 434.545a.993.993 0 0 1-.437-.1c-3.233-1.572-6.609-3.431-10.035-5.527C349.856 410.358 316.436 374.5 290.8 333c-21.3-34.485-46.938-88.406-48.12-149.445-1.226-63.823 17.663-119.206 51.825-151.95C318.064 9.025 348.33-1.81 382.035.266c24.662 1.518 47.408 11.5 67.607 29.665 2.351 2.1 4.728 4.386 7.072 6.792a152.025 152.025 0 0 1 31.12-13.733.951.951 0 0 1 .105-.027c45.888-14.387 99.526-7.45 140.012 18.113 34.537 21.806 56.539 54.972 61.953 93.389 5.342 37.925 3.626 86.648-49.62 160.474-31.664 43.9-86.989 83.5-155.783 111.522a500.618 500.618 0 0 1-93.641 28.066.987.987 0 0 1-.187.018zM373.95 2.015c-29.936 0-56.785 10.641-78.058 31.032-33.759 32.359-52.424 87.2-51.209 150.468C246.73 289.278 325.308 393 381.245 427.211c3.266 2 6.483 3.776 9.568 5.289a498.779 498.779 0 0 0 92.933-27.892c68.452-27.88 123.469-67.244 154.916-110.839 52.831-73.251 54.549-121.494 49.261-159.025-5.33-37.825-27.008-70.49-61.039-91.977-40.028-25.273-93.071-32.12-138.431-17.867a.951.951 0 0 1-.1.027 149.848 149.848 0 0 0-31.3 13.92 1 1 0 0 1-1.23-.167 141.888 141.888 0 0 0-7.516-7.258c-19.857-17.859-42.195-27.668-66.4-29.157q-4.007-.25-7.957-.25z" fill="#670a39"/><path d="M390.673 434.545a.99.99 0 0 1-.437-.1c-31.6-15.381-67.46-51.178-95.926-95.757-32.336-50.643-50.671-105.737-51.627-155.133C241.451 119.735 260.338 64.35 294.5 31.6 318.06 9.018 348.332-1.822 382.034.257c27.634 1.7 52.757 13.972 74.68 36.468a150.544 150.544 0 0 1 18.88-9.315C529.1 5.51 595.323 14.519 640.38 49.828a139.59 139.59 0 0 1 19.973 19.078A129.071 129.071 0 0 1 676.982 93.6a123.365 123.365 0 0 1 5.423 12.026 128.639 128.639 0 0 1 7.5 28.842c6.571 46.592-4.869 79.611-15.569 103.173a262.68 262.68 0 0 1-7.016 14.254 367.844 367.844 0 0 1-27.033 43.038c-.155.206-.3.406-.432.6a.969.969 0 0 1-.09.111c-20.8 28.6-50.771 54.8-89.083 77.882-47.2 28.443-105.452 50.679-159.819 61.006a1.066 1.066 0 0 1-.19.013zM373.95 2.006c-29.937 0-56.789 10.644-78.064 31.039-33.762 32.364-52.425 87.208-51.2 150.471.949 49.032 19.172 103.758 51.313 154.094 27.763 43.48 64.065 79.8 94.817 94.891 54.05-10.311 111.923-32.424 158.834-60.692 38.123-22.965 67.921-49.02 88.567-77.441a1.006 1.006 0 0 1 .07-.086c.126-.178.257-.361.389-.537a365.553 365.553 0 0 0 26.875-42.786 262.06 262.06 0 0 0 6.965-14.147c20.158-44.385 18.824-77.861 15.41-102.067a126.71 126.71 0 0 0-7.382-28.4 121.641 121.641 0 0 0-5.336-11.833 127.1 127.1 0 0 0-16.372-24.31 137.689 137.689 0 0 0-19.687-18.8c-44.512-34.88-109.935-43.778-162.797-22.141a148.444 148.444 0 0 0-19.3 9.585 1 1 0 0 1-1.229-.166C434.129 16.2 409.262 3.939 381.911 2.253q-4.011-.247-7.961-.247z" fill="#670a39"/><path d="M452.873 401.285c-85-36.93-150.36-32.71-200.04 19.26-25.67 26.86-47.16 66.47-65 119.73a16 16 0 0 1-30.35-10.16c48.31-144.21 129.46-207.75 251.16-177.77q32.235 7.92 68.31 24.69c8.02 3.73-20.59 25.77-24.08 24.25z" fill="#af4357"/><path d="M389.453 362.015c-55.67-3.9-105.95 17.38-136.62 58.53-25.67 26.86-47.16 66.47-65 119.73a16 16 0 0 1-30.35-10.16q7.935-23.7 17.07-44.47c19.46-44.24 43.05-78.43 71.1-101.99 42.79-35.98 95.96-47.25 160.68-31.87a8.722 8.722 0 0 1 4.92 3.07c3.847 4.98-2.03 8.55-21.8 7.16z" fill="#df5468"/><path d="M258.753 391.885c-12.81 11.23-52.086 45.833-73.436 106.083-3.73-4.08-8.044-9.343-10.764-12.323 19.46-44.24 43.05-78.43 71.1-101.99 18.34-14.39 25.07-2.25 13.1 8.23z" fill="#ff6d6d"/><path d="M172.644 552.2a17.005 17.005 0 0 1-16.107-22.4c15.042-44.906 33.418-82.1 54.617-110.552 21.63-29.03 46.894-49.9 75.092-62.02 25.841-11.11 54.9-15.2 86.36-12.167 31.81 3.069 67.06 13.522 104.773 31.069a1 1 0 1 1-.844 1.813C439.029 360.49 404 350.1 372.414 347.049c-31.122-3-59.85 1.039-85.378 12.015-27.871 11.982-52.861 32.632-74.279 61.377-21.072 28.281-39.349 65.288-54.324 109.992a15 15 0 0 0 28.448 9.529c27.407-81.822 63.506-131.737 110.361-152.6 41.91-18.658 92.945-14.406 156.024 13a1 1 0 1 1-.8 1.834c-62.535-27.169-113.044-31.424-154.415-13.007C251.742 409.812 216 459.337 188.777 540.6a17.032 17.032 0 0 1-16.133 11.6zm500.779-314.975q-3.15 6.93-6.99 14.2a120.776 120.776 0 0 0-21.6 3.469c12.61-7.66 22.1-13.569 28.59-17.669z" fill="#670a39"/><path d="M644.833 255.9a1 1 0 0 1-.519-1.855c13.343-8.106 22.9-14.078 28.575-17.661a1 1 0 0 1 1.444 1.259 262.705 262.705 0 0 1-7.016 14.255 1 1 0 0 1-.828.53 119.825 119.825 0 0 0-21.421 3.443 1 1 0 0 1-.235.029zm26.267-16.028a1944.817 1944.817 0 0 1-20.565 12.723 110.707 110.707 0 0 1 15.281-2.136 272.41 272.41 0 0 0 5.284-10.587z" fill="#670a39"/><path d="M486.174 159.858c-9.39 35.55-37.58 59.2-64.01 54.48-1.02-.18-2.04-.41-3.05-.67-.83-.22-1.65-.46-2.45-.74-21.93-7.38-34.67-33.79-32.03-63.63a93.025 93.025 0 0 1 2.73-15.54c8.63-32.64 33.1-55.26 57.5-55.08a38.046 38.046 0 0 1 9.56 1.27c27.276 7.21 41.5 42.98 31.75 79.91z" fill="#fff8ea"/><path d="M486.174 159.858c-9.39 35.55-37.58 59.2-64.01 54.48-1.02-.18-2.04-.41-3.05-.67-.83-.22-1.65-.46-2.45-.74 24.41.19 48.89-22.42 57.51-55.07 9.45-35.81-3.63-70.53-29.31-79.18a38.046 38.046 0 0 1 9.56 1.27c27.276 7.21 41.5 42.98 31.75 79.91z" fill="#e7dcdc"/><path d="M500.9 107.333a1 1 0 0 1-.972-.77c-5.4-22.788-19.437-39.248-37.55-44.032a1 1 0 1 1 .51-1.933c18.839 4.975 33.414 21.986 38.986 45.5a1 1 0 0 1-.742 1.2 1.027 1.027 0 0 1-.232.035z" fill="#670a39"/><path d="M354.784 132.788c-10.44 32.95-35.71 54.29-56.45 47.65a24.94 24.94 0 0 1-5.16-2.31 27.753 27.753 0 0 1-5.5-4.29c-10.55-10.5-14.91-30.39-11.14-52.14a93.959 93.959 0 0 1 3.16-12.96c10.44-32.95 35.71-54.29 56.45-47.64.57.18 1.12.38 1.67.61 19.51 7.78 27.13 39.02 16.97 71.08z" fill="#fff8ea"/><path d="M354.784 132.788c-10.44 32.95-35.71 54.29-56.45 47.65a24.94 24.94 0 0 1-5.16-2.31 27.753 27.753 0 0 1-5.5-4.29c.54.22 1.1.42 1.66.6 20.74 6.64 46.01-14.7 56.45-47.65 8.41-26.53 4.64-52.5-7.97-65.08 19.51 7.78 27.13 39.02 16.97 71.08z" fill="#e7dcdc"/><g fill="#670a39"><path d="M428.941 215.936a39.477 39.477 0 0 1-6.953-.614c-.975-.171-2-.4-3.123-.685-.961-.255-1.788-.5-2.532-.765-21.96-7.39-35.409-33.982-32.7-64.662a94.087 94.087 0 0 1 2.767-15.71c8.568-32.4 33-55.826 58.176-55.826h.3a39.131 39.131 0 0 1 9.809 1.3c27.771 7.34 42.333 43.735 32.46 81.131-8.652 32.746-33.334 55.831-58.204 55.831zm15.631-136.259c-24.284 0-47.9 22.795-56.241 54.337a92.183 92.183 0 0 0-2.7 15.372c-2.633 29.756 10.26 55.5 31.353 62.594a31.84 31.84 0 0 0 2.387.721c1.069.275 2.041.489 2.967.652 26.062 4.655 53.679-18.955 62.87-53.75 9.591-36.33-4.333-71.63-31.039-78.688a37.144 37.144 0 0 0-9.31-1.237zM306.156 182.646a26.53 26.53 0 0 1-8.127-1.256 26.06 26.06 0 0 1-5.365-2.4 28.788 28.788 0 0 1-5.7-4.443c-10.841-10.789-15.217-31.1-11.418-53.018a95.054 95.054 0 0 1 3.193-13.093c6.615-20.879 19.351-37.885 34.067-45.488 8.111-4.19 16.286-5.158 23.64-2.8.6.191 1.178.4 1.751.639 20.131 8.028 27.841 39.791 17.537 72.305-6.615 20.879-19.35 37.885-34.066 45.491a33.849 33.849 0 0 1-15.512 4.063zM328.315 60.89a31.869 31.869 0 0 0-14.588 3.833c-14.255 7.364-26.621 23.932-33.08 44.317a93.187 93.187 0 0 0-3.127 12.825c-3.689 21.284.472 40.926 10.859 51.264a26.832 26.832 0 0 0 5.3 4.138 24.03 24.03 0 0 0 4.956 2.218c6.839 2.191 14.486 1.263 22.115-2.68 14.254-7.368 26.619-23.936 33.078-44.319 9.989-31.52 2.79-62.2-16.388-69.849a18.42 18.42 0 0 0-1.6-.585 24.56 24.56 0 0 0-7.525-1.162z"/><ellipse cx="423.281" cy="138.071" rx="48.158" ry="28.055" transform="matrix(.23668553 -.97158631 .97158631 .23668553 188.948 516.646)"/><path d="M415.889 186.34a17.9 17.9 0 0 1-4.243-.507c-7.641-1.862-13.557-8.64-16.658-19.087-3.045-10.259-3.023-22.884.063-35.552 6.415-26.336 24.3-44.678 39.865-40.884 7.641 1.862 13.556 8.64 16.658 19.087 3.045 10.259 3.022 22.884-.063 35.552s-8.873 23.888-16.3 31.6c-6.175 6.415-12.899 9.791-19.322 9.791zm14.79-94.54c-13.529 0-28.057 16.762-33.685 39.864-3 12.329-3.035 24.584-.089 34.509 2.89 9.736 8.294 16.026 15.214 17.712s14.612-1.415 21.656-8.73c7.18-7.458 12.789-18.355 15.792-30.684 3-12.329 3.035-24.584.09-34.509-2.891-9.736-8.294-16.027-15.215-17.712a15.815 15.815 0 0 0-3.763-.45z"/><ellipse cx="303.292" cy="110.704" rx="41.124" ry="20.615" transform="matrix(.2763587 -.96105456 .96105456 .2763587 113.083 371.592)"/><path d="M294.826 151.631a11.448 11.448 0 0 1-2.85-.355c-3.367-.861-6.27-3.259-8.395-6.936-5.045-8.732-5.517-23.681-1.231-39.014 6.248-22.357 20.721-38.145 32.259-35.194 3.367.861 6.27 3.26 8.394 6.937 5.046 8.731 5.517 23.68 1.232 39.014-5.743 20.548-18.435 35.548-29.409 35.548zm16.812-79.869c-10.04 0-21.863 14.428-27.362 34.1-4.146 14.833-3.748 29.192 1.037 37.474 1.876 3.246 4.284 5.265 7.158 6 10.5 2.683 23.879-12.478 29.838-33.795l.963.269-.963-.269c4.145-14.833 3.748-29.193-1.037-37.475-1.876-3.246-4.284-5.264-7.158-6a9.968 9.968 0 0 0-2.476-.304z"/></g><path d="M770.094 335.5a16 16 0 1 1-19.31-25.511c11.7-8.86 21.089-17.869 27.839-26.489 11.89-15.17 15.63-29.13 9.52-38.851-7.78-12.359-32.64-20.96-69.72-15.169h-.01c-.48.069-.97.149-1.47.23q-1.185.194-2.4.419h-.04c-20.08 3.591-43.55 11.331-69.67 24.77a16 16 0 0 1-14.64-28.46c160.82-82.745 259.64 18.446 139.901 109.061z" fill="#df5468"/><path d="M793.123 285.084a21.429 21.429 0 0 1-3.076 2.172c-11.6 6.611-15.394 2.442-7.885-8.592 9.04-13.282 11.437-25.341 5.981-34.02-7.78-12.359-32.64-20.96-69.72-15.169h-.01l-.18-.061c-18.867 4.712-29.937-9.59-8.32-18.279 22.74-9.14 61.181-10.9 83.931 5.79 21.029 15.429 20.71 50.34-.721 68.159z" fill="#ff6d6d"/><path d="M760.459 339.734a17 17 0 0 1-10.279-30.549c31.845-24.1 46.414-49.225 37.115-64.007-11.97-19.029-65.38-28.818-142 10.6a1 1 0 1 1-.915-1.778c77.735-40 132.245-29.546 144.609-9.891 9.892 15.725-4.867 41.893-37.6 66.666a15 15 0 0 0 18.103 23.925c45.764-34.636 63.449-74.776 46.153-104.755-9.99-17.317-30.444-28.724-57.591-32.119-30.254-3.783-66.236 2.637-104.049 18.567a1 1 0 0 1-.777-1.843c38.136-16.066 74.469-22.535 105.074-18.708 27.784 3.474 48.764 15.231 59.075 33.1C835.218 259.87 817.331 301 770.7 336.3a16.917 16.917 0 0 1-10.241 3.434z" fill="#670a39"/><path d="M772.594 383.558a42.191 42.191 0 0 1-8.04 13.41 45.616 45.616 0 0 1-9.32 7.88c-19.25 14.6-48.76 21.59-66.24 5-8.79-2.8-16.54-7.74-21.81-15.03a35.33 35.33 0 0 1-2.31-3.62c-16.04-9.54-17.02-36.29-11.95-54.06v-.01c-1.82-11.33.78-22.35 11.75-31.61 26.49-22.39 61.66-7.04 92.67 7.52 20.55 20.34 24.11 47.14 15.25 70.52z" fill="#df5468"/><path d="M693.826 345.885a20.126 20.126 0 0 0 7.358-15.311c-.167-15.02-20.672-25.706-36.928-8.4-34.743 37.018-15.1 74.665 28.218 76.527l1.352-52.816z" fill="#df5468"/><path d="M689 409.85c-8.789-2.8-19.219-9.824-23.434-18.285 14.928 8.913 36.916-2.188 47.64-5.993 11.088-3.935 20.175-3.895 33.41 4.461 5.564 3.513 14.243 11.155 8.73 14.748l-.108.071c-19.251 14.598-48.765 21.584-66.238 4.998z" fill="#af4357"/><path d="M707.52 413.872h-.031c-20.156-.624-36.011-8.713-43.5-22.193a1 1 0 1 1 1.748-.971c7.242 13.038 22.091 20.555 41.811 21.165a1 1 0 0 1-.03 2z" fill="#670a39"/><path d="M647.125 351.882a49.642 49.642 0 0 1 5.8-14.758c-1.82-11.324.779-22.343 11.757-31.606a46.27 46.27 0 0 1 17.114-9.293c12.158-3.777 25.249-.947 30.5-.122v.01c17.376 8.066 26.782 29.092 15.33 50.2-11.837 21.838-37.761 37.042-59.153 34.826a24.383 24.383 0 0 1-21.348-29.257z" fill="#ff6d6d"/><path d="M652.922 338.13a.993.993 0 0 1-.894-.558v-.01a1.014 1.014 0 0 1-.088-.28c-2.1-13.041 1.974-23.985 12.1-32.528a47.382 47.382 0 0 1 17.487-9.491c11.234-3.485 22.989-1.49 29.3-.418.6.1 1.142.193 1.627.271a1 1 0 0 1 .181.046c13.951 3.029 27.4 8.77 38.72 13.991a1 1 0 1 1-.838 1.817c-11.254-5.191-24.622-10.9-38.427-13.879a1.018 1.018 0 0 1-.079-.021c-.458-.074-.966-.16-1.519-.254-6.149-1.043-17.6-2.986-28.4.364a45.429 45.429 0 0 0-16.765 9.1c-9.679 8.168-13.415 18.195-11.419 30.657a1 1 0 0 1-.983 1.191zm61.924 82.338c-10.492 0-19.512-3.31-26.371-9.736-13.221-4.279-21.339-12.692-24.535-19.163a1 1 0 1 1 1.793-.886c3.031 6.139 10.815 14.147 23.567 18.214a.983.983 0 0 1 .385.227c16.81 15.953 46.008 9.295 64.945-5.069a41.3 41.3 0 0 0 17.031-20.855c6.965-18.407 5.7-38.175-3.466-54.235a1 1 0 0 1 1.737-.991c9.465 16.579 10.776 36.967 3.6 55.935a43.7 43.7 0 0 1-17.752 21.784c-10.076 7.645-22.564 12.889-34.2 14.346a54.243 54.243 0 0 1-6.734.429z" fill="#670a39"/><path d="M692.475 399.7h-.044c-21.543-.926-38.136-10.636-44.388-25.974-6.454-15.836-.811-34.875 15.484-52.236 7.822-8.329 17.73-11.26 26.5-7.842a18.532 18.532 0 0 1 12.153 16.913 20.983 20.983 0 0 1-7.708 16.083 1 1 0 0 1-1.3-1.521 19.252 19.252 0 0 0 7.007-14.538 16.541 16.541 0 0 0-10.879-15.073c-7.987-3.111-17.078-.364-24.32 7.346-15.737 16.767-21.237 35.032-15.09 50.113 5.949 14.594 21.882 23.839 42.622 24.731a1 1 0 0 1-.042 2z" fill="#670a39"/><path d="M709.351 317.234a53.294 53.294 0 0 1-21.837 24.974c1.1 12.018 20.226 15.727 30.914 2.237 11.658-14.713-2.212-30.661-9.077-27.211z" fill="#ff6d6d"/><path d="M687.515 343.208a1 1 0 0 1-.51-1.86 52.406 52.406 0 0 0 21.431-24.518 1 1 0 0 1 1.829.809 54.358 54.358 0 0 1-22.242 25.43 1 1 0 0 1-.508.139z" fill="#670a39"/><ellipse cx="299.697" cy="88.561" fill="#fff8ea" rx="8.756" ry="6.424" transform="matrix(.35538432 -.93472027 .93472027 .35538432 110.409 337.22)"/><path d="M298.326 98.063a5.883 5.883 0 0 1-2.1-.383c-3.826-1.455-5.384-6.73-3.472-11.758a11.514 11.514 0 0 1 4.35-5.6 6.3 6.3 0 0 1 10 3.8 12.12 12.12 0 0 1-4.818 12.678 7.306 7.306 0 0 1-3.96 1.263zm2.749-17A5.347 5.347 0 0 0 298.2 82a9.506 9.506 0 0 0-3.568 4.635c-1.52 4-.482 8.114 2.314 9.177a4.711 4.711 0 0 0 4.259-.687 9.506 9.506 0 0 0 3.567-4.634 9.5 9.5 0 0 0 .413-5.834 4.71 4.71 0 0 0-2.727-3.343 3.857 3.857 0 0 0-1.383-.253z" fill="#670a39"/><ellipse cx="415.513" cy="112.57" fill="#fff8ea" rx="9.35" ry="6.86" transform="matrix(.37164331 -.9283756 .9283756 .37164331 156.583 456.485)"/><path d="M413.951 122.613a6.11 6.11 0 0 1-2.284-.435c-4.024-1.61-5.571-7.231-3.45-12.529s7.117-8.3 11.143-6.688 5.571 7.231 3.45 12.53c-1.733 4.327-5.386 7.122-8.859 7.122zm3.081-18.1c-2.655 0-5.538 2.326-6.959 5.875-1.711 4.274-.663 8.729 2.337 9.929s6.832-1.3 8.544-5.574.662-8.728-2.337-9.929a4.235 4.235 0 0 0-1.585-.297zM392.526 269.86c9.143 24.281 51.818 47.361 91.458 27.98.67-.328 1.369-.673 2.015-1.006 48.49-25.088 52.008-76.649 28.1-91.789-24.976-15.831-37.934 24.172-57.85 31.416-23.014 8.377-45.514-10.913-61.612 11.83-4.59 6.493-4.966 14.068-2.111 21.569z" fill="#670a39"/><path d="M452.858 306.094a74.125 74.125 0 0 1-27.4-5.327c-16.219-6.439-29.2-18.147-33.869-30.555-3.131-8.227-2.359-16.006 2.232-22.5 9.973-14.09 22.338-12.6 35.43-11.028 8.667 1.043 17.63 2.12 26.656-1.164 7.117-2.589 13.546-9.757 19.764-16.688 11.059-12.327 22.492-25.073 38.964-14.634 9.926 6.287 15.471 18.808 14.831 33.5a63.393 63.393 0 0 1-11 32.168c-7.615 11.435-18.386 20.808-32.013 27.858-.653.337-1.359.686-2.035 1.016a71.629 71.629 0 0 1-31.56 7.354zM417.173 237.7c-8.117 0-15.376 2.207-21.719 11.168-4.188 5.923-4.878 13.059-1.993 20.635 4.48 11.9 17.023 23.162 32.735 29.4a70.144 70.144 0 0 0 57.347-1.967 90.898 90.898 0 0 0 2-1c19.479-10.078 40.724-30.7 41.928-58.336.608-13.963-4.589-25.821-13.9-31.72-15.041-9.533-25.418 2.034-36.4 14.281-6.382 7.114-12.981 14.471-20.569 17.231-9.474 3.449-18.679 2.342-27.579 1.271a101.261 101.261 0 0 0-11.85-.963z" fill="#670a39"/><path d="M497.827 277.34c.025-.255.051-.5.067-.741.512-6.811-1.927-11.508-5.871-14.414-9.413-6.019-27.436-.828-35.286 7.314-1.808-8.5-28.621-8.512-35.118 12.738-8.919 29.111 72.781 27.7 76.208-4.897z" fill="#ec4949"/><path d="M452.272 303.964c-11.754 0-22.522-2.757-28.05-7.977-3.989-3.766-5.22-8.622-3.559-14.043a26.458 26.458 0 0 1 26.362-18.736c4.931.214 8.616 1.9 10.1 4.525 8.723-7.928 26.077-12.377 35.439-6.39 4.656 3.427 6.826 8.716 6.329 15.331-.013.194-.033.4-.053.607l-.015.154v.009c-1.006 9.571-8.639 17.463-21.494 22.224a73.629 73.629 0 0 1-25.059 4.296zm-6.288-38.779a24.437 24.437 0 0 0-23.408 17.345c-1.444 4.71-.428 8.748 3.02 12 8.98 8.48 32.831 10 51.038 3.259 12.1-4.482 19.276-11.781 20.2-20.554l.014-.152c.019-.188.037-.371.049-.553.444-5.9-1.447-10.582-5.466-13.542-8.823-5.641-26.369-.686-33.973 7.2a1 1 0 0 1-1.7-.486c-.529-2.485-4.074-4.3-8.821-4.5-.315-.01-.632-.017-.953-.017z" fill="#670a39"/><path d="M497.827 277.34c2.41-25.041-29.662-19.695-41.09-7.841a35.307 35.307 0 0 0-7.836 12.264" fill="#ec4949"/><path d="M448.9 282.764a1 1 0 0 1-.93-1.367 36.173 36.173 0 0 1 8.047-12.591c7.53-7.811 24.284-13.206 34.6-8.454 4.3 1.98 9.215 6.552 8.2 17.083a1 1 0 0 1-1.991-.191c.713-7.411-1.724-12.624-7.047-15.075-9.435-4.345-25.4.837-32.328 8.024a34.3 34.3 0 0 0-7.626 11.936 1 1 0 0 1-.925.635z" fill="#670a39"/><path d="M481.873 264.74c-9.987-1.674-16.86 3.859-18.036 8.353s6.518 12.6 19.022 8.623 10.785-15.003-.986-16.976z" fill="#ff6d6d"/><path d="m155.663 574.165-79.9-102.92-63.5-81.79c11.93-40.3 100.66-12.76 151.19 48.96v.01c.02.02.04.05.06.07q2.04 2.475 3.96 5.01a158.57 158.57 0 0 1 22.61 40.34c14.117 28.67 11.217 72.36-34.42 90.32z" fill="#df5468"/><path d="M152.457 516.712c-37.33-.75-72.464-45.377-76.694-45.467l-63.5-81.79c9.368-31.274 55.963-17.764 93.524 4.948 15.645 9.461 29.722 22.171 38.89 31.27 46.956 46.607 55.123 141.276 7.78 91.039z" fill="#af4357"/><path d="M155.665 575.165a1 1 0 0 1-.791-.387L11.472 390.071a1 1 0 0 1-.168-.9c3.632-12.27 14.161-19.058 30.449-19.63 22.459-.79 53.773 10.912 81.67 30.541 31.843 22.4 55.848 52.027 67.593 83.412a1 1 0 1 1-1.873.7c-11.6-31.011-35.354-60.3-66.871-82.477-27.559-19.391-58.392-30.95-80.449-30.178-10.58.371-24.039 3.76-28.453 17.711l142.623 183.7c26.711-10.777 41.476-32.408 40.542-59.454a1 1 0 0 1 .965-1.034 1.012 1.012 0 0 1 1.034.965c.973 28.177-14.519 50.652-42.5 61.661a1 1 0 0 1-.369.077z" fill="#670a39"/><path d="M160.408 570.006c-13.724 17.478-44.414-4.05-79.992-45.862C49.01 487.236 5.47 418.913 11.93 390.74c5.577-24.325 39.393-13.182 69.1 16.594 47.392 47.508 95.087 142.666 79.378 162.672z" fill="#df5468"/><path d="M149.4 561.005c-8.02 10.22-21.83 7.11-39.03-5.59a319.6 319.6 0 0 1-29.96-31.27c-31.4-36.91-74.94-105.23-68.48-133.41 4.52-19.73 27.62-16.12 52.05 1.84q3.045 2.745 6.05 5.76c47.393 47.51 95.083 142.665 79.37 162.67z" fill="#ff6d6d"/><path d="M147.915 577.108c-9.763 0-22.6-7.036-38.208-20.946a320.793 320.793 0 0 1-30.056-31.368C48.05 487.646 4.364 419.28 10.958 390.512c1.5-6.546 4.98-10.876 10.344-12.869 10.157-3.774 25.928 1.375 43.274 14.127a149.457 149.457 0 0 1 17.166 14.859c22.237 22.295 46.583 57.513 63.536 91.912 17.507 35.526 23.456 62.472 15.912 72.082a16.077 16.077 0 0 1-11.569 6.411c-.557.049-1.127.074-1.706.074zM28.491 378.453A18.6 18.6 0 0 0 22 379.517c-4.693 1.745-7.752 5.594-9.091 11.442C6.746 417.836 48.6 485.2 81.175 523.5a318.608 318.608 0 0 0 29.862 31.171c16.1 14.353 29.025 21.21 38.407 20.373a14.149 14.149 0 0 0 10.173-5.653c6.952-8.856.77-35.664-16.133-69.963-16.863-34.217-41.064-69.233-63.159-91.383a147.287 147.287 0 0 0-16.935-14.664c-13.152-9.669-25.628-14.928-34.899-14.928zM406.972 86.975a1 1 0 0 1-.842-1.538A148.778 148.778 0 0 1 441.607 46.9a151.067 151.067 0 0 1 26.616-16.237c.6-.292 1.212-.576 1.82-.849a151.785 151.785 0 0 1 40.539-12.177 1 1 0 0 1 .3 1.977 149.83 149.83 0 0 0-40.013 12.02c-.6.27-1.192.546-1.784.832A149.007 149.007 0 0 0 442.82 48.49a146.786 146.786 0 0 0-35 38.022 1 1 0 0 1-.848.463z" fill="#670a39"/><path d="M366.9 95.186c-16.2-2.512-30.894-18.532-40.253-41.1" fill="#ff6d6d"/><path d="M366.9 96.186a1 1 0 0 1-.154-.012c-15.88-2.463-31.216-18.055-41.023-41.708a1 1 0 1 1 1.847-.766c9.538 23 24.3 38.143 39.482 40.5a1 1 0 0 1-.152 1.988z" fill="#670a39"/><path d="m344.229 52.384 23.017 30.039-4.448 9.205-16.557-12.323-16.648-22.458z" fill="#ff6d6d"/><path d="M596.6 165.693c-1.172 13.878-8.829 22.658-11.845 20.338-3.122-2.205-2.071-11.337-1.334-20.766.973-9.416 1.692-18.118 5.123-20.145 3.303-2.12 9.218 6.695 8.056 20.573z" fill="#fff8ea"/><path d="M808.583 204.77a.988.988 0 0 1-.611-.21c-18.372-14.215-46.443-20.6-79.049-17.978a1 1 0 0 1-.16-1.994c33.1-2.661 61.666 3.87 80.433 18.391a1 1 0 0 1-.613 1.791zM201.921 415a1 1 0 0 1-.812-1.582c15.889-22.225 33.843-40 53.363-52.829a1 1 0 0 1 1.1 1.672c-19.314 12.693-37.09 30.3-52.835 52.32a1 1 0 0 1-.816.419zM38.385 493.274a1 1 0 0 1-.841-.457c-10.415-16.1-29.137-47.18-37.5-74.38a1 1 0 0 1 1.912-.588c8.292 26.969 26.908 57.865 37.267 73.882a1 1 0 0 1-.838 1.543z" fill="#670a39"/></svg></g></svg>